<svg width="40" height="40" viewBox="0 0 40 40" fill="none" xmlns="http://www.w3.org/2000/svg">
<rect width="40" height="40" rx="10" fill="#FF4D6B"/>
<path fill-rule="evenodd" clip-rule="evenodd" d="M18.3989 10.479L18.4004 10.4775C18.6304 10.3885 19.1264 10.25 20.0019 10.25C20.8774 10.25 21.3744 10.3885 21.6039 10.4775L21.6049 10.479C21.6144 10.489 21.6274 10.5075 21.6399 10.534C22.2209 11.708 22.9089 12.6275 23.8929 13.2005C24.8779 13.774 26.0179 13.9175 27.3299 13.8355C27.351 13.834 27.3721 13.8352 27.3929 13.839C27.5849 13.995 27.9539 14.359 28.3924 15.123C28.8324 15.89 28.9614 16.394 28.9994 16.6395L28.9979 16.643C28.9906 16.6643 28.9805 16.6844 28.9679 16.703C28.2434 17.8 27.7974 18.86 27.7974 20C27.7974 21.14 28.2439 22.2 28.9674 23.297C28.98 23.3156 28.9901 23.3357 28.9974 23.357L28.9989 23.3605C28.9614 23.606 28.8324 24.1105 28.3919 24.877C27.9534 25.641 27.5854 26.005 27.3929 26.161C27.372 26.1649 27.3506 26.166 27.3294 26.1645C26.0179 26.0825 24.8779 26.226 23.8924 26.7995C22.9084 27.3725 22.2204 28.292 21.6399 29.466C21.6307 29.4858 21.6189 29.5043 21.6049 29.521L21.6034 29.5225C21.3734 29.6115 20.8774 29.75 20.0014 29.75C19.1264 29.75 18.6299 29.6115 18.3999 29.5225C18.3674 29.4843 18.336 29.4451 18.3059 29.405L18.2224 29.2975C17.9464 28.9455 17.2664 28.1745 16.3394 27.489C15.4284 26.815 14.1509 26.129 12.7109 26.1655C12.6775 26.1672 12.644 26.1655 12.6109 26.1605C12.4189 26.0055 12.0509 25.641 11.6119 24.877C11.1719 24.11 11.0424 23.606 11.0049 23.3605L11.0059 23.357C11.0133 23.3357 11.0236 23.3155 11.0364 23.297C11.7604 22.2 12.2059 21.14 12.2059 20C12.2059 18.86 11.7609 17.8 11.0374 16.7035C11.0246 16.685 11.0143 16.6648 11.0069 16.6435L11.0054 16.6395C11.0434 16.3945 11.1724 15.8895 11.6124 15.123C12.0509 14.359 12.4194 13.995 12.6114 13.839C12.6323 13.8353 12.6537 13.8343 12.6749 13.836C13.9869 13.918 15.1264 13.7735 16.1114 13.2C17.0954 12.627 17.7834 11.7075 18.3639 10.534C18.3731 10.5142 18.3849 10.4957 18.3989 10.479ZM20.0024 8.25C18.8539 8.25 18.0869 8.4425 17.5994 8.6445C17.333 8.75768 17.0959 8.93024 16.9064 9.149C16.7729 9.29945 16.6603 9.46711 16.5714 9.6475C16.0769 10.6475 15.6119 11.177 15.1054 11.472C14.5999 11.7665 13.9119 11.909 12.8004 11.84C12.5989 11.8271 12.3966 11.8414 12.1989 11.8825C11.9157 11.9384 11.6489 12.0581 11.4189 12.2325C11.0019 12.5555 10.4529 13.127 9.87888 14.1275C9.30388 15.1275 9.08738 15.8905 9.01788 16.414C8.98323 16.6998 9.01313 16.9898 9.10538 17.2625C9.17038 17.4615 9.26188 17.6435 9.36788 17.8045C9.98288 18.7365 10.2064 19.4085 10.2064 19.9995C10.2064 20.5915 9.98288 21.2635 9.36788 22.1955C9.25649 22.3636 9.1682 22.5459 9.10538 22.7375C9.01306 23.0104 8.98316 23.3005 9.01788 23.5865C9.08688 24.1095 9.30438 24.8725 9.87788 25.873C10.4529 26.873 11.0019 27.4445 11.4189 27.767C11.6489 27.9416 11.9156 28.0615 12.1989 28.1175C12.4074 28.1615 12.6019 28.169 12.7629 28.165C13.5519 28.145 14.3879 28.532 15.1509 29.097C15.8984 29.6495 16.4539 30.282 16.6499 30.532L16.6849 30.5775C16.7409 30.65 16.8294 30.765 16.9154 30.862C17.0694 31.0345 17.2869 31.224 17.5814 31.348C18.0674 31.553 18.8394 31.75 20.0024 31.75C21.1509 31.75 21.9184 31.558 22.4054 31.3555C22.6719 31.2425 22.9091 31.0701 23.0989 30.8515C23.2379 30.6955 23.3484 30.5255 23.4339 30.3525C23.9284 29.3525 24.3934 28.8225 24.8999 28.5275C25.4054 28.2335 26.0934 28.091 27.2059 28.1605C27.3984 28.1725 27.6019 28.161 27.8069 28.118C28.0901 28.062 28.3569 27.9421 28.5869 27.7675C29.0044 27.4445 29.5534 26.8735 30.1274 25.8725C30.7019 24.8725 30.9189 24.1095 30.9879 23.5865C31.0226 23.3005 30.9927 23.0104 30.9004 22.7375C30.8376 22.5459 30.7493 22.3636 30.6379 22.1955C30.0224 21.2625 29.7989 20.5905 29.7989 20C29.7989 19.4095 30.0224 18.7375 30.6374 17.8045C30.7439 17.6435 30.8354 17.4615 30.9004 17.2625C30.9927 16.9896 31.0226 16.6995 30.9879 16.4135C30.9184 15.8905 30.7014 15.1275 30.1274 14.127C29.5529 13.127 29.0039 12.5555 28.5869 12.2325C28.3568 12.0581 28.0901 11.9384 27.8069 11.8825C27.6092 11.8412 27.4069 11.8268 27.2054 11.8395C26.0934 11.9095 25.4054 11.7665 24.8999 11.472C24.3934 11.177 23.9284 10.6475 23.4339 9.647C23.345 9.46678 23.2323 9.29929 23.0989 9.149C22.9092 8.93 22.672 8.75726 22.4054 8.644C21.9179 8.443 21.1504 8.25 20.0024 8.25ZM17.3899 16.2605C17.7684 16.0255 18.2459 15.977 18.7224 16.1615C19.3049 16.387 20.0849 16.7365 21.1054 17.2785C22.0814 17.797 22.8359 18.2575 23.4069 18.639C23.9109 18.976 24.1774 19.4805 24.1774 19.999C24.1774 20.5185 23.9109 21.023 23.4074 21.36C22.8359 21.7415 22.0814 22.202 21.1054 22.72C20.0854 23.2625 19.3054 23.612 18.7224 23.8375C18.2459 24.0215 17.7684 23.974 17.3899 23.738C17.0129 23.5035 16.7539 23.096 16.6819 22.598C16.5849 21.93 16.5024 21.0515 16.5024 20C16.5024 18.9485 16.5849 18.07 16.6814 17.401C16.7534 16.903 17.0129 16.4955 17.3899 16.2605Z" fill="white"/>
</svg>
