<svg width="142" height="34" viewBox="0 0 142 34" fill="none" xmlns="http://www.w3.org/2000/svg">
<g clip-path="url(#clip0_1_912)">
<path d="M134.373 26.2348C132.26 26.2348 130.539 25.5692 129.207 24.2378C127.894 22.8885 127.237 21.2289 127.237 19.2584C127.237 17.2879 127.894 15.637 129.207 14.3056C130.539 12.9742 132.26 12.3085 134.373 12.3085C136.45 12.3085 138.136 12.9742 139.432 14.3056C140.746 15.637 141.403 17.2879 141.403 19.2584C141.403 21.2289 140.746 22.8885 139.432 24.2378C138.119 25.5692 136.432 26.2348 134.373 26.2348ZM134.373 23.8117C135.687 23.8117 136.761 23.3679 137.595 22.4803C138.447 21.5927 138.873 20.5187 138.873 19.2584C138.873 17.9802 138.447 16.9062 137.595 16.0364C136.761 15.1666 135.687 14.7316 134.373 14.7316C133.024 14.7316 131.923 15.1666 131.071 16.0364C130.219 16.9062 129.793 17.9802 129.793 19.2584C129.793 20.5366 130.219 21.6194 131.071 22.507C131.923 23.3768 133.024 23.8117 134.373 23.8117Z" fill="#111111"/>
<path d="M126.498 12.6811V15.1309H121.839V25.8618H119.309V15.1309H114.649V12.6811H126.498Z" fill="#111111"/>
<path d="M112.48 12.6811V25.8618H109.951V15.5836L105.504 25.8618H103.666L99.2197 15.5836V25.8618H96.6899V12.6811H100.551L104.572 22.1606L108.619 12.6811H112.48Z" fill="#111111"/>
<path d="M87.0918 26.2348C84.9794 26.2348 83.2573 25.5692 81.926 24.2378C80.6125 22.8885 79.9556 21.2289 79.9556 19.2584C79.9556 17.2879 80.6125 15.637 81.926 14.3056C83.2573 12.9742 84.9794 12.3085 87.0918 12.3085C89.1688 12.3085 90.8553 12.9742 92.151 14.3056C93.4647 15.637 94.1216 17.2879 94.1216 19.2584C94.1216 21.2289 93.4647 22.8885 92.151 24.2378C90.8376 25.5692 89.1511 26.2348 87.0918 26.2348ZM87.0918 23.8117C88.4055 23.8117 89.4795 23.3679 90.3138 22.4803C91.1658 21.5927 91.5919 20.5187 91.5919 19.2584C91.5919 17.9802 91.1658 16.9062 90.3138 16.0364C89.4795 15.1666 88.4055 14.7316 87.0918 14.7316C85.7427 14.7316 84.642 15.1666 83.79 16.0364C82.9378 16.9062 82.5119 17.9802 82.5119 19.2584C82.5119 20.5366 82.9378 21.6194 83.79 22.507C84.642 23.3768 85.7427 23.8117 87.0918 23.8117Z" fill="#111111"/>
<path d="M71.4169 12.3089C73.3696 12.2911 74.9762 12.9302 76.2365 14.2261C77.4969 15.522 78.1272 17.1995 78.1272 19.2587C78.1272 21.3179 77.488 23.0044 76.2099 24.3181C74.9495 25.6315 73.3609 26.2708 71.4435 26.2352C69.4021 26.2175 67.8222 25.4096 66.7038 23.812H66.5972V31.188H64.0944V12.6817H66.5972V14.5989H66.7305C67.2275 13.9065 67.8755 13.3562 68.6742 12.9479C69.4908 12.5397 70.405 12.3266 71.4169 12.3089ZM71.0707 23.7854C72.42 23.7854 73.5116 23.3505 74.3461 22.4807C75.1803 21.6108 75.5975 20.5369 75.5975 19.2587C75.5975 17.9806 75.1803 16.9066 74.3461 16.0368C73.5116 15.1669 72.42 14.732 71.0707 14.732C69.7571 14.732 68.6832 15.1669 67.8489 16.0368C67.0323 16.9066 66.6239 17.9806 66.6239 19.2587C66.6239 20.5369 67.0323 21.6108 67.8489 22.4807C68.6832 23.3505 69.7571 23.7854 71.0707 23.7854Z" fill="#111111"/>
<path d="M60.1798 8.0204V25.861H57.597V10.55H47.4783V25.861H44.8955V8.0204H60.1798Z" fill="#111111"/>
<path d="M9.31463 7.66869C10.3237 7.66869 11.2954 7.82926 12.2054 8.12606V25.8406C11.2953 26.1374 10.3237 26.2981 9.31463 26.2981C4.17031 26.2981 2.86364e-05 22.1278 0 16.9834C0 11.8391 4.17029 7.66871 9.31463 7.66869Z" fill="#111111"/>
<path d="M15.0972 3.81467C18.7351 3.81467 22.0285 5.28985 24.4119 7.67462V26.2927C22.0285 28.6775 18.7352 30.1528 15.0972 30.1528C14.1041 30.1528 13.1367 30.0425 12.2064 29.8341V4.13317C13.1367 3.92482 14.1041 3.81467 15.0972 3.81467Z" fill="#111111"/>
<path d="M24.4104 0C31.7944 2.11707 37.1978 8.91913 37.1978 16.9834C37.1978 25.0477 31.7942 31.8496 24.4104 33.9668V0Z" fill="#111111"/>
</g>
<defs>
<clipPath id="clip0_1_912">
<rect width="141.567" height="34" fill="white"/>
</clipPath>
</defs>
</svg>
