<svg width="688" height="182" viewBox="0 0 688 182" fill="none" xmlns="http://www.w3.org/2000/svg">
<path d="M325.423 60.3385C335.513 60.2468 343.816 63.5504 350.328 70.2465C356.84 76.9424 360.097 85.61 360.097 96.2498C360.097 106.89 356.795 115.605 350.191 122.392C343.679 129.18 335.469 132.481 325.563 132.298C315.015 132.206 306.85 128.034 301.071 119.78H300.521V157.89H287.587V62.2662H300.521V72.1719H301.208C303.777 68.5949 307.124 65.7508 311.251 63.6412C315.471 61.5315 320.195 60.4303 325.423 60.3385ZM406.418 60.3407C417.15 60.3409 425.862 63.7805 432.558 70.6598C439.346 77.5392 442.74 86.0685 442.74 96.2498C442.74 106.432 439.346 115.01 432.558 121.981C425.771 128.86 417.057 132.3 406.418 132.3C395.503 132.3 386.604 128.86 379.725 121.981C372.937 115.01 369.543 106.432 369.543 96.2498C369.543 86.0687 372.937 77.5391 379.725 70.6598C386.604 63.7803 395.502 60.3407 406.418 60.3407ZM650.734 60.3407C661.466 60.3409 670.179 63.7805 676.875 70.6598C683.662 77.5392 687.056 86.0685 687.057 96.2498C687.057 106.432 683.662 115.01 676.875 121.981C670.087 128.86 661.374 132.3 650.734 132.3C639.819 132.3 630.921 128.86 624.041 121.981C617.253 115.01 613.859 106.432 613.859 96.2498C613.859 86.0687 617.254 77.5391 624.041 70.6598C630.921 63.7803 639.819 60.3407 650.734 60.3407ZM267.355 130.373H254.01V51.2573H201.725V130.373H188.379V38.1882H267.355V130.373ZM496.743 111.247L517.658 62.2662H537.609V130.373H524.537V77.2629L501.56 130.373H492.066L469.089 77.2629V130.373H456.017V62.2662H475.968L496.743 111.247ZM610.037 74.9241H585.959V130.373H572.888V74.9241H548.81V62.2662H610.037V74.9241ZM406.418 72.8594C399.447 72.8594 393.759 75.1075 389.356 79.6017C384.954 84.0962 382.751 89.6459 382.751 96.2498C382.751 102.854 384.954 108.451 389.356 113.037C393.759 117.531 399.447 119.78 406.418 119.78C413.205 119.779 418.755 117.486 423.066 112.9C427.469 108.314 429.669 102.762 429.669 96.2498C429.669 89.6459 427.469 84.0962 423.066 79.6017C418.755 75.1074 413.205 72.8596 406.418 72.8594ZM650.734 72.8594C643.763 72.8594 638.076 75.1075 633.673 79.6017C629.27 84.0962 627.068 89.6459 627.067 96.2498C627.067 102.854 629.27 108.451 633.673 113.037C638.076 117.531 643.763 119.78 650.734 119.78C657.522 119.779 663.071 117.486 667.382 112.9C671.785 108.314 673.985 102.762 673.985 96.2498C673.985 89.6459 671.785 84.0962 667.382 79.6017C663.071 75.1074 657.522 72.8596 650.734 72.8594ZM323.635 72.8594C316.848 72.8595 311.298 75.1073 306.987 79.6017C302.768 84.0962 300.658 89.6457 300.658 96.2498C300.658 102.854 302.768 108.403 306.987 112.898C311.298 117.392 316.847 119.64 323.635 119.64C330.606 119.64 336.248 117.393 340.559 112.898C344.87 108.403 347.026 102.854 347.026 96.2498C347.025 89.6458 344.87 84.0962 340.559 79.6017C336.248 75.1071 330.606 72.8594 323.635 72.8594Z" fill="black"/>
<path d="M97.2446 0C126.549 19.6244 145.845 53.0313 145.845 90.9488C145.845 128.866 126.549 162.273 97.2446 181.898V130.472C86.3181 146.917 68.8938 159.448 48.6378 162.853V125.319C44.8296 126.668 40.7322 127.408 36.4618 127.408C16.3249 127.408 0.000667432 111.083 0 90.9466C0 70.8094 16.3245 54.4848 36.4618 54.4848C40.732 54.4848 44.8298 55.2206 48.6378 56.5694V19.0444C68.8933 22.4496 86.3137 34.2004 97.2402 50.645L97.2446 0Z" fill="black"/>
</svg>
