<svg width="50" height="50" viewBox="0 0 50 50" fill="none" xmlns="http://www.w3.org/2000/svg">
<rect width="50" height="50" rx="14" fill="url(#paint0_linear_1_761)"/>
<g clip-path="url(#clip0_1_761)">
<path d="M25.3524 20.744C24.5319 17.4302 21.5655 15 17.9994 15C13.8023 15 10.4256 18.4085 10.4256 22.5745C10.4256 23.9632 10.8043 25.2887 11.467 26.3933L10.0785 29.4231C9.76287 30.0859 10.4571 30.7802 11.1199 30.4646L14.1494 29.076C15.2539 29.7387 16.5793 30.1175 17.9679 30.1175C19.7982 30.1175 21.4708 29.4862 22.7647 28.4132C22.7015 28.0029 22.67 27.5926 22.67 27.1823C22.7331 24.6891 23.7429 22.3851 25.3524 20.744ZM18.1572 27.5611C17.5892 27.5611 17.1158 27.0877 17.1158 26.5196C17.1158 25.9515 17.5892 25.4781 18.1572 25.4781C18.7253 25.4781 19.1986 25.9515 19.1986 26.5196C19.1986 27.0877 18.7253 27.5611 18.1572 27.5611ZM20.6818 22.2273C20.2716 22.7639 19.8613 23.0479 19.5773 23.2688C19.2302 23.5213 19.104 23.616 19.0408 24.1525C19.0093 24.405 18.7884 24.5944 18.5675 24.5944H17.8417C17.5576 24.5944 17.3367 24.3419 17.3683 24.0578C17.463 22.7639 17.9679 22.2905 18.599 21.8486C18.8515 21.6593 19.0724 21.5015 19.3249 21.1858C19.5773 20.8387 19.6089 20.3968 19.388 20.0181C19.2618 19.7656 18.9146 19.3238 18.0941 19.3238C17.0212 19.3238 16.674 20.0181 16.5793 20.5231C16.5478 20.7756 16.3269 20.9334 16.106 20.9334H15.3486C15.0646 20.9334 14.8121 20.6809 14.8752 20.3968C15.0961 18.9766 16.106 17.6195 18.0941 17.6195C19.3564 17.6195 20.3978 18.2192 20.9343 19.2607C21.3761 20.2706 21.2814 21.3752 20.6818 22.2273Z" fill="white"/>
<path d="M39.9347 34.0625L38.5461 31.0327C39.2088 29.8966 39.5875 28.6026 39.5875 27.2139C39.5875 23.0164 36.1793 19.6394 32.0137 19.6394C27.8165 19.6394 24.4398 23.0479 24.4398 27.2139C24.4398 31.4115 27.8481 34.7884 32.0137 34.7884C33.4022 34.7884 34.7276 34.4097 35.8322 33.7469L38.8617 35.1356C39.5244 35.4196 40.2187 34.7253 39.9347 34.0625ZM27.7849 28.5079C27.0591 28.5079 26.4911 27.9398 26.4911 27.2139C26.4911 26.488 27.0591 25.9199 27.7849 25.9199C28.5108 25.9199 29.0788 26.488 29.0788 27.2139C29.0788 27.9398 28.5108 28.5079 27.7849 28.5079ZM32.0137 28.5079C31.2878 28.5079 30.7198 27.9398 30.7198 27.2139C30.7198 26.488 31.2878 25.9199 32.0137 25.9199C32.7395 25.9199 33.3075 26.488 33.3075 27.2139C33.3075 27.9398 32.7079 28.5079 32.0137 28.5079ZM36.2109 28.5079C35.485 28.5079 34.917 27.9398 34.917 27.2139C34.917 26.488 35.485 25.9199 36.2109 25.9199C36.9367 25.9199 37.5047 26.488 37.5047 27.2139C37.5047 27.9398 36.9367 28.5079 36.2109 28.5079Z" fill="white"/>
</g>
<defs>
<linearGradient id="paint0_linear_1_761" x1="44.375" y1="-54.375" x2="15" y2="45.625" gradientUnits="userSpaceOnUse">
<stop stop-color="#575EFF"/>
<stop offset="1" stop-color="#E478FF"/>
</linearGradient>
<clipPath id="clip0_1_761">
<rect width="30" height="30" fill="white" transform="translate(10 10)"/>
</clipPath>
</defs>
</svg>
