<svg width="50" height="50" viewBox="0 0 50 50" fill="none" xmlns="http://www.w3.org/2000/svg">
<rect width="50" height="50" rx="14" fill="url(#paint0_linear_1_754)"/>
<path d="M27.5347 14.5801L25.7718 23.8422L32.1581 23.8637L23.4652 36.4199L25.228 26.2301L18.8421 26.2078L27.5347 14.5801ZM27.5359 13.0176C27.4937 13.0176 27.4515 13.0192 27.4101 13.0223C27.1343 13.0446 26.9515 13.1367 26.7347 13.2824C26.6126 13.3638 26.5026 13.4619 26.4078 13.5739C26.3793 13.6075 26.3524 13.6424 26.3273 13.6785L17.5722 25.2656C17.2265 25.7395 17.1757 26.3649 17.4413 26.8875C17.7066 27.4102 18.2429 27.7415 18.8308 27.7458L23.3409 27.7786L21.923 36.1329C21.7882 36.8508 22.171 37.5665 22.8448 37.8547C23.0407 37.9389 23.2516 37.9822 23.4647 37.9821C23.9558 37.9821 24.3593 37.7524 24.662 37.3375L33.428 24.7813C33.7738 24.3074 33.8242 23.6813 33.5589 23.1594C33.2937 22.6367 32.7573 22.3054 32.1695 22.3012L27.6593 22.2934L29.062 14.9477C29.0918 14.8274 29.1067 14.704 29.1066 14.5801C29.1066 13.7348 28.4335 13.0457 27.5913 13.0184C27.5726 13.0176 27.5542 13.0176 27.5359 13.0176L27.5359 13.0176Z" fill="white"/>
<defs>
<linearGradient id="paint0_linear_1_754" x1="38.125" y1="-13.75" x2="20.625" y2="62.5" gradientUnits="userSpaceOnUse">
<stop stop-color="#5EFF6E"/>
<stop offset="1" stop-color="#289F35"/>
</linearGradient>
</defs>
</svg>
