<svg width="50" height="50" viewBox="0 0 50 50" fill="none" xmlns="http://www.w3.org/2000/svg">
<rect width="50" height="50" rx="14" fill="url(#paint0_linear_1_772)"/>
<path d="M13.75 25H20M13.75 25C13.75 31.2132 18.7868 36.25 25 36.25M13.75 25C13.75 18.7868 18.7868 13.75 25 13.75M20 25H30M20 25C20 31.2132 22.2386 36.25 25 36.25M20 25C20 18.7868 22.2386 13.75 25 13.75M30 25H36.25M30 25C30 18.7868 27.7614 13.75 25 13.75M30 25C30 31.2132 27.7614 36.25 25 36.25M36.25 25C36.25 18.7868 31.2132 13.75 25 13.75M36.25 25C36.25 31.2132 31.2132 36.25 25 36.25" stroke="white" stroke-width="2" stroke-linecap="round" stroke-linejoin="round"/>
<defs>
<linearGradient id="paint0_linear_1_772" x1="35.625" y1="-15.625" x2="15" y2="56.875" gradientUnits="userSpaceOnUse">
<stop stop-color="#3F50EF"/>
<stop offset="1" stop-color="#223DDB"/>
</linearGradient>
</defs>
</svg>
