<svg width="327" height="52" viewBox="0 0 327 52" fill="none" xmlns="http://www.w3.org/2000/svg">
<rect width="327" height="52" rx="26" fill="url(#paint0_linear_1_1196)"/>
<path d="M115.75 32H111.25M107.5 27.3501V23.1501C107.5 22.3101 107.5 21.8897 107.663 21.5688C107.807 21.2866 108.037 21.0573 108.319 20.9135C108.64 20.75 109.06 20.75 109.9 20.75H117.1C117.94 20.75 118.36 20.75 118.681 20.9135C118.963 21.0573 119.193 21.2866 119.337 21.5688C119.5 21.8894 119.5 22.3092 119.5 23.1477V27.3523C119.5 28.1908 119.5 28.61 119.337 28.9305C119.193 29.2128 118.963 29.4429 118.681 29.5867C118.36 29.75 117.941 29.75 117.102 29.75H109.898C109.059 29.75 108.639 29.75 108.319 29.5867C108.037 29.4429 107.807 29.2128 107.663 28.9305C107.5 28.6097 107.5 28.1902 107.5 27.3501Z" stroke="white" stroke-width="1.35" stroke-linecap="round" stroke-linejoin="round"/>
<path d="M136.168 21.932C135.646 21.932 135.193 22.03 134.81 22.226C134.437 22.422 134.129 22.6833 133.886 23.01C133.644 23.3367 133.462 23.7193 133.34 24.158C133.228 24.5873 133.172 25.04 133.172 25.516C133.172 26.0013 133.233 26.4633 133.354 26.902C133.476 27.3407 133.658 27.728 133.9 28.064C134.152 28.3907 134.47 28.652 134.852 28.848C135.235 29.044 135.688 29.142 136.21 29.142C136.854 29.142 137.391 29.002 137.82 28.722C138.259 28.442 138.534 28.064 138.646 27.588H140.27C140.196 28.064 140.037 28.4887 139.794 28.862C139.561 29.2353 139.267 29.5527 138.912 29.814C138.558 30.066 138.147 30.262 137.68 30.402C137.214 30.5327 136.714 30.598 136.182 30.598C135.408 30.598 134.726 30.472 134.138 30.22C133.56 29.968 133.074 29.618 132.682 29.17C132.29 28.722 131.996 28.19 131.8 27.574C131.604 26.958 131.506 26.2813 131.506 25.544C131.506 24.8253 131.604 24.158 131.8 23.542C132.006 22.9167 132.304 22.38 132.696 21.932C133.088 21.4747 133.574 21.12 134.152 20.868C134.74 20.6067 135.422 20.476 136.196 20.476C137.288 20.476 138.189 20.7327 138.898 21.246C139.608 21.7593 140.037 22.5153 140.186 23.514H138.59C138.469 23.0287 138.198 22.646 137.778 22.366C137.358 22.0767 136.822 21.932 136.168 21.932ZM145.057 22.996C145.645 22.996 146.163 23.0893 146.611 23.276C147.059 23.4627 147.437 23.724 147.745 24.06C148.062 24.3867 148.3 24.7833 148.459 25.25C148.618 25.7167 148.697 26.2347 148.697 26.804C148.697 27.3827 148.618 27.9053 148.459 28.372C148.31 28.8293 148.081 29.226 147.773 29.562C147.465 29.898 147.082 30.1547 146.625 30.332C146.177 30.5093 145.654 30.598 145.057 30.598C144.469 30.598 143.951 30.5093 143.503 30.332C143.055 30.1453 142.677 29.8887 142.369 29.562C142.07 29.226 141.842 28.8247 141.683 28.358C141.534 27.8913 141.459 27.3733 141.459 26.804C141.459 26.2347 141.534 25.7167 141.683 25.25C141.842 24.7833 142.075 24.3867 142.383 24.06C142.691 23.724 143.069 23.4627 143.517 23.276C143.965 23.0893 144.478 22.996 145.057 22.996ZM145.057 29.212C145.421 29.212 145.729 29.1513 145.981 29.03C146.242 28.8993 146.452 28.7267 146.611 28.512C146.779 28.2973 146.9 28.0453 146.975 27.756C147.059 27.4667 147.101 27.154 147.101 26.818C147.101 26.482 147.059 26.1693 146.975 25.88C146.9 25.5813 146.779 25.3247 146.611 25.11C146.452 24.8953 146.242 24.7273 145.981 24.606C145.729 24.4847 145.421 24.424 145.057 24.424C144.702 24.424 144.394 24.4847 144.133 24.606C143.881 24.7273 143.671 24.8953 143.503 25.11C143.344 25.3247 143.223 25.5813 143.139 25.88C143.064 26.1693 143.027 26.482 143.027 26.818C143.027 27.154 143.064 27.4667 143.139 27.756C143.223 28.0453 143.344 28.2973 143.503 28.512C143.671 28.7267 143.881 28.8993 144.133 29.03C144.394 29.1513 144.702 29.212 145.057 29.212ZM154.991 26.552C155.383 26.6827 155.673 26.8973 155.859 27.196C156.046 27.4853 156.139 27.812 156.139 28.176C156.139 28.1947 156.139 28.2133 156.139 28.232C156.139 28.6987 156.046 29.086 155.859 29.394C155.673 29.702 155.421 29.9493 155.103 30.136C154.795 30.3133 154.459 30.4347 154.095 30.5C153.741 30.5653 153.377 30.598 153.003 30.598C152.639 30.598 152.266 30.5653 151.883 30.5C151.51 30.4253 151.165 30.2993 150.847 30.122C150.539 29.9447 150.283 29.7113 150.077 29.422C149.872 29.1327 149.755 28.7687 149.727 28.33H151.267C151.305 28.5167 151.384 28.6707 151.505 28.792C151.636 28.9133 151.785 29.0113 151.953 29.086C152.121 29.1607 152.299 29.212 152.485 29.24C152.672 29.268 152.845 29.282 153.003 29.282C153.171 29.282 153.353 29.2727 153.549 29.254C153.745 29.226 153.918 29.1793 154.067 29.114C154.226 29.0393 154.357 28.9413 154.459 28.82C154.562 28.6893 154.613 28.5213 154.613 28.316C154.613 27.9613 154.478 27.7233 154.207 27.602C153.946 27.4807 153.615 27.42 153.213 27.42H151.981V26.16H153.087C153.433 26.16 153.727 26.09 153.969 25.95C154.212 25.81 154.333 25.5673 154.333 25.222C154.333 25.0447 154.287 24.9 154.193 24.788C154.109 24.6667 154.002 24.5733 153.871 24.508C153.741 24.4427 153.596 24.4007 153.437 24.382C153.279 24.354 153.139 24.34 153.017 24.34C152.859 24.34 152.695 24.354 152.527 24.382C152.359 24.4007 152.201 24.4427 152.051 24.508C151.902 24.5733 151.776 24.662 151.673 24.774C151.571 24.886 151.51 25.0307 151.491 25.208H149.965C150.003 24.7693 150.119 24.41 150.315 24.13C150.511 23.8407 150.754 23.612 151.043 23.444C151.333 23.276 151.65 23.1593 151.995 23.094C152.35 23.0287 152.7 22.996 153.045 22.996C153.391 22.996 153.727 23.0287 154.053 23.094C154.389 23.1593 154.697 23.2807 154.977 23.458C155.257 23.6353 155.472 23.85 155.621 24.102C155.78 24.3447 155.859 24.662 155.859 25.054C155.859 25.4087 155.775 25.712 155.607 25.964C155.449 26.216 155.243 26.412 154.991 26.552ZM158.191 25.754C158.219 25.306 158.238 24.872 158.247 24.452C158.257 24.0227 158.261 23.5793 158.261 23.122H163.945V29.142H164.911V32.656H163.357V30.5H158.317V32.656H156.763V29.142C157.034 29.142 157.258 29.058 157.435 28.89C157.622 28.7127 157.748 28.5167 157.813 28.302C157.879 28.1527 157.935 27.952 157.981 27.7C158.028 27.4387 158.065 27.182 158.093 26.93C158.121 26.678 158.145 26.4447 158.163 26.23C158.182 26.0153 158.191 25.8567 158.191 25.754ZM162.349 24.508H159.717C159.699 24.844 159.685 25.208 159.675 25.6C159.666 25.992 159.652 26.37 159.633 26.734C159.615 26.9113 159.596 27.1027 159.577 27.308C159.568 27.5133 159.545 27.7233 159.507 27.938C159.47 28.1433 159.419 28.3487 159.353 28.554C159.288 28.7593 159.199 28.9553 159.087 29.142H162.349V24.508ZM170.78 29.59C170.538 29.9353 170.216 30.192 169.814 30.36C169.413 30.5187 168.965 30.598 168.47 30.598C168.078 30.598 167.719 30.5513 167.392 30.458C167.075 30.3647 166.795 30.2247 166.552 30.038C166.31 29.842 166.118 29.604 165.978 29.324C165.838 29.0347 165.768 28.708 165.768 28.344C165.768 27.9427 165.848 27.602 166.006 27.322C166.165 27.0327 166.38 26.7993 166.65 26.622C166.93 26.4447 167.257 26.314 167.63 26.23C168.004 26.1367 168.396 26.09 168.806 26.09H170.696C170.696 25.5487 170.575 25.1287 170.332 24.83C170.09 24.5313 169.665 24.3773 169.058 24.368C168.704 24.368 168.396 24.4287 168.134 24.55C167.882 24.6713 167.714 24.872 167.63 25.152H165.992C166.048 24.76 166.174 24.4287 166.37 24.158C166.576 23.8873 166.818 23.6633 167.098 23.486C167.388 23.3087 167.705 23.1827 168.05 23.108C168.405 23.0333 168.76 22.996 169.114 22.996C169.572 22.996 169.996 23.0567 170.388 23.178C170.78 23.2993 171.121 23.5047 171.41 23.794C171.737 24.13 171.956 24.5313 172.068 24.998C172.18 25.4647 172.236 25.9733 172.236 26.524V30.5H170.85L170.78 29.59ZM170.696 27.224H169.156C168.886 27.224 168.615 27.2473 168.344 27.294C168.074 27.3313 167.84 27.4293 167.644 27.588C167.458 27.7373 167.364 27.9567 167.364 28.246C167.364 28.6007 167.49 28.8713 167.742 29.058C168.004 29.2353 168.321 29.324 168.694 29.324C168.984 29.324 169.25 29.2867 169.492 29.212C169.744 29.1373 169.959 29.016 170.136 28.848C170.314 28.6707 170.449 28.4513 170.542 28.19C170.645 27.9193 170.696 27.5973 170.696 27.224ZM179.704 23.122V24.508H177.212V30.5H175.63V24.508H173.138V23.122H179.704ZM180.622 23.122H182.218V25.614H183.87C184.299 25.614 184.687 25.6513 185.032 25.726C185.387 25.7913 185.69 25.9173 185.942 26.104C186.203 26.2907 186.404 26.5333 186.544 26.832C186.693 27.1307 186.768 27.4993 186.768 27.938C186.768 28.4327 186.675 28.848 186.488 29.184C186.311 29.5107 186.073 29.772 185.774 29.968C185.485 30.164 185.153 30.304 184.78 30.388C184.407 30.4627 184.029 30.5 183.646 30.5H180.622V23.122ZM183.464 29.17C183.679 29.17 183.889 29.156 184.094 29.128C184.309 29.0907 184.491 29.0347 184.64 28.96C184.799 28.876 184.925 28.7593 185.018 28.61C185.121 28.4607 185.177 28.2647 185.186 28.022C185.186 27.7607 185.13 27.56 185.018 27.42C184.906 27.28 184.766 27.1773 184.598 27.112C184.43 27.0467 184.243 27.0093 184.038 27C183.842 26.9907 183.66 26.986 183.492 26.986H182.218V29.156L183.464 29.17ZM195.218 30.598C194.63 30.598 194.112 30.5093 193.664 30.332C193.225 30.1453 192.856 29.8887 192.558 29.562C192.268 29.226 192.049 28.8293 191.9 28.372C191.76 27.9053 191.69 27.392 191.69 26.832C191.69 26.272 191.764 25.7587 191.914 25.292C192.072 24.8253 192.306 24.424 192.614 24.088C192.922 23.752 193.295 23.486 193.734 23.29C194.172 23.094 194.681 22.996 195.26 22.996C195.67 22.996 196.048 23.0427 196.394 23.136C196.748 23.22 197.061 23.3647 197.332 23.57C197.602 23.766 197.836 24.018 198.032 24.326C198.228 24.6247 198.363 24.9887 198.438 25.418H196.786C196.702 25.1007 196.52 24.858 196.24 24.69C195.969 24.5127 195.633 24.424 195.232 24.424C194.877 24.424 194.574 24.4893 194.322 24.62C194.07 24.7507 193.864 24.928 193.706 25.152C193.547 25.376 193.43 25.6373 193.356 25.936C193.29 26.2253 193.258 26.5287 193.258 26.846C193.258 27.1727 193.295 27.4807 193.37 27.77C193.444 28.0593 193.561 28.3113 193.72 28.526C193.888 28.7313 194.098 28.8993 194.35 29.03C194.602 29.1513 194.905 29.212 195.26 29.212C195.68 29.212 196.025 29.1187 196.296 28.932C196.576 28.7453 196.753 28.498 196.828 28.19H198.466C198.391 28.61 198.251 28.974 198.046 29.282C197.85 29.59 197.607 29.842 197.318 30.038C197.028 30.234 196.706 30.3787 196.352 30.472C195.997 30.556 195.619 30.598 195.218 30.598ZM204.591 29.59C204.348 29.9353 204.026 30.192 203.625 30.36C203.224 30.5187 202.776 30.598 202.281 30.598C201.889 30.598 201.53 30.5513 201.203 30.458C200.886 30.3647 200.606 30.2247 200.363 30.038C200.12 29.842 199.929 29.604 199.789 29.324C199.649 29.0347 199.579 28.708 199.579 28.344C199.579 27.9427 199.658 27.602 199.817 27.322C199.976 27.0327 200.19 26.7993 200.461 26.622C200.741 26.4447 201.068 26.314 201.441 26.23C201.814 26.1367 202.206 26.09 202.617 26.09H204.507C204.507 25.5487 204.386 25.1287 204.143 24.83C203.9 24.5313 203.476 24.3773 202.869 24.368C202.514 24.368 202.206 24.4287 201.945 24.55C201.693 24.6713 201.525 24.872 201.441 25.152H199.803C199.859 24.76 199.985 24.4287 200.181 24.158C200.386 23.8873 200.629 23.6633 200.909 23.486C201.198 23.3087 201.516 23.1827 201.861 23.108C202.216 23.0333 202.57 22.996 202.925 22.996C203.382 22.996 203.807 23.0567 204.199 23.178C204.591 23.2993 204.932 23.5047 205.221 23.794C205.548 24.13 205.767 24.5313 205.879 24.998C205.991 25.4647 206.047 25.9733 206.047 26.524V30.5H204.661L204.591 29.59ZM204.507 27.224H202.967C202.696 27.224 202.426 27.2473 202.155 27.294C201.884 27.3313 201.651 27.4293 201.455 27.588C201.268 27.7373 201.175 27.9567 201.175 28.246C201.175 28.6007 201.301 28.8713 201.553 29.058C201.814 29.2353 202.132 29.324 202.505 29.324C202.794 29.324 203.06 29.2867 203.303 29.212C203.555 29.1373 203.77 29.016 203.947 28.848C204.124 28.6707 204.26 28.4513 204.353 28.19C204.456 27.9193 204.507 27.5973 204.507 27.224ZM211.275 21.148C211.601 21.148 211.872 21.0733 212.087 20.924C212.301 20.7747 212.423 20.5367 212.451 20.21H213.851C213.785 20.938 213.524 21.47 213.067 21.806C212.619 22.142 212.021 22.31 211.275 22.31C210.509 22.31 209.898 22.142 209.441 21.806C208.993 21.47 208.741 20.938 208.685 20.21H210.085C210.122 20.5367 210.243 20.7747 210.449 20.924C210.663 21.0733 210.939 21.148 211.275 21.148ZM209.245 30.5H207.761V23.122H209.357V28.19L213.109 23.122H214.551V30.5H212.955V25.544C212.945 25.5627 211.709 27.2147 209.245 30.5ZM222.046 23.122V24.508H219.554V30.5H217.972V24.508H215.48V23.122H222.046Z" fill="white"/>
<defs>
<linearGradient id="paint0_linear_1_1196" x1="179.85" y1="-25" x2="172.514" y2="44.7133" gradientUnits="userSpaceOnUse">
<stop stop-color="#5EFF6E"/>
<stop offset="1" stop-color="#464EFF"/>
</linearGradient>
</defs>
</svg>
