<svg width="42" height="42" viewBox="0 0 42 42" fill="none" xmlns="http://www.w3.org/2000/svg">
<path d="M27.584 9.16797C34.4412 9.168 40 14.7268 40 21.584C40 28.4411 34.4411 34 27.584 34C25.3127 34 23.1861 33.3862 21.3545 32.3213C25.2135 30.2154 27.832 26.1219 27.832 21.416C27.832 16.8296 25.3433 12.8277 21.6445 10.6777C23.4088 9.71491 25.4325 9.16797 27.584 9.16797ZM15.416 9C17.6868 9 19.8132 9.61323 21.6445 10.6777C17.7857 12.7837 15.168 16.8782 15.168 21.584C15.168 26.1699 17.6564 30.1711 21.3545 32.3213C19.5903 33.284 17.5673 33.832 15.416 33.832C8.55884 33.832 3 28.2732 3 21.416C3.00003 14.5589 8.55885 9.00003 15.416 9Z" fill="white"/>
</svg>
