<svg width="327" height="52" viewBox="0 0 327 52" fill="none" xmlns="http://www.w3.org/2000/svg">
<rect x="0.75" y="0.75" width="325.5" height="50.5" rx="25.25" stroke="url(#paint0_linear_1_1199)" stroke-width="1.5"/>
<path d="M75.5 22.25L75.113 23.2955C74.606 24.6665 74.3525 25.352 73.8522 25.8523C73.352 26.3525 72.6665 26.606 71.2955 27.113L70.25 27.5L71.2955 27.887C72.6665 28.394 73.352 28.6483 73.8522 29.1478C74.3525 29.6473 74.606 30.3335 75.113 31.7045L75.5 32.75L75.887 31.7045C76.394 30.3335 76.6482 29.648 77.1477 29.1478C77.6472 28.6475 78.3335 28.394 79.7045 27.887L80.75 27.5L79.7045 27.113C78.3335 26.606 77.648 26.3525 77.1477 25.8523C76.6475 25.352 76.394 24.6665 75.887 23.2955L75.5 22.25ZM81.5 19.25L81.3342 19.6977C81.1167 20.2857 81.008 20.5797 80.7942 20.7935C80.5797 21.008 80.2857 21.1167 79.6977 21.3335L79.25 21.5L79.6985 21.6657C80.2857 21.8832 80.5797 21.992 80.7935 22.2057C81.008 22.4202 81.1167 22.7142 81.3335 23.3022L81.5 23.75L81.6657 23.3022C81.8832 22.7142 81.992 22.4202 82.2057 22.2065C82.4202 21.992 82.7142 21.8832 83.3022 21.6665L83.75 21.5L83.3015 21.3342C82.7143 21.1167 82.4202 21.008 82.2065 20.7942C81.992 20.5797 81.8832 20.2857 81.6665 19.6977L81.5 19.25Z" stroke="#464EFF" stroke-width="1.35" stroke-linejoin="round"/>
<circle cx="81.5" cy="21.5001" r="0.9" fill="#464EFF"/>
<path d="M95.371 30.5V20.602H103.309V30.5H101.825V21.946H96.855V30.5H95.371ZM108.649 30.584C107.883 30.584 107.235 30.43 106.703 30.122C106.171 29.8047 105.765 29.3613 105.485 28.792C105.214 28.2227 105.079 27.5647 105.079 26.818C105.079 26.062 105.214 25.404 105.485 24.844C105.765 24.2747 106.171 23.8313 106.703 23.514C107.235 23.1873 107.888 23.024 108.663 23.024C109.428 23.024 110.077 23.1873 110.609 23.514C111.141 23.8313 111.542 24.2747 111.813 24.844C112.083 25.4133 112.219 26.076 112.219 26.832C112.219 27.5693 112.079 28.2227 111.799 28.792C111.528 29.3613 111.127 29.8047 110.595 30.122C110.072 30.43 109.423 30.584 108.649 30.584ZM108.649 29.296C109.153 29.296 109.559 29.184 109.867 28.96C110.184 28.736 110.417 28.4373 110.567 28.064C110.716 27.6907 110.791 27.28 110.791 26.832C110.791 26.384 110.716 25.9733 110.567 25.6C110.417 25.2173 110.184 24.914 109.867 24.69C109.559 24.4567 109.153 24.34 108.649 24.34C108.154 24.34 107.748 24.4567 107.431 24.69C107.113 24.914 106.88 25.2127 106.731 25.586C106.591 25.9593 106.521 26.3747 106.521 26.832C106.521 27.28 106.591 27.6907 106.731 28.064C106.88 28.4373 107.113 28.736 107.431 28.96C107.748 29.184 108.154 29.296 108.649 29.296ZM113.698 30.5V23.122H120.012V30.5H118.57V24.41H115.14V30.5H113.698ZM121.778 33.188V23.122H123.15L123.22 24.186C123.482 23.794 123.827 23.5047 124.256 23.318C124.686 23.122 125.143 23.024 125.628 23.024C126.356 23.024 126.958 23.192 127.434 23.528C127.91 23.864 128.265 24.3167 128.498 24.886C128.732 25.4553 128.848 26.0993 128.848 26.818C128.848 27.5367 128.727 28.1807 128.484 28.75C128.251 29.3193 127.887 29.7673 127.392 30.094C126.907 30.4207 126.286 30.584 125.53 30.584C125.166 30.584 124.84 30.5467 124.55 30.472C124.261 30.3973 124.009 30.29 123.794 30.15C123.58 30.0007 123.388 29.842 123.22 29.674V33.188H121.778ZM125.362 29.296C125.866 29.296 126.268 29.184 126.566 28.96C126.865 28.7267 127.08 28.4233 127.21 28.05C127.341 27.6767 127.406 27.2707 127.406 26.832C127.406 26.3747 127.336 25.9593 127.196 25.586C127.066 25.2033 126.846 24.9 126.538 24.676C126.24 24.4427 125.838 24.326 125.334 24.326C124.877 24.326 124.49 24.4427 124.172 24.676C123.855 24.9 123.612 25.2033 123.444 25.586C123.286 25.9687 123.206 26.384 123.206 26.832C123.206 27.2893 123.281 27.7093 123.43 28.092C123.589 28.4653 123.827 28.7593 124.144 28.974C124.471 29.1887 124.877 29.296 125.362 29.296ZM133.572 30.584C132.807 30.584 132.158 30.43 131.626 30.122C131.094 29.8047 130.688 29.3613 130.408 28.792C130.138 28.2227 130.002 27.5647 130.002 26.818C130.002 26.062 130.138 25.404 130.408 24.844C130.688 24.2747 131.094 23.8313 131.626 23.514C132.158 23.1873 132.812 23.024 133.586 23.024C134.352 23.024 135 23.1873 135.532 23.514C136.064 23.8313 136.466 24.2747 136.736 24.844C137.007 25.4133 137.142 26.076 137.142 26.832C137.142 27.5693 137.002 28.2227 136.722 28.792C136.452 29.3613 136.05 29.8047 135.518 30.122C134.996 30.43 134.347 30.584 133.572 30.584ZM133.572 29.296C134.076 29.296 134.482 29.184 134.79 28.96C135.108 28.736 135.341 28.4373 135.49 28.064C135.64 27.6907 135.714 27.28 135.714 26.832C135.714 26.384 135.64 25.9733 135.49 25.6C135.341 25.2173 135.108 24.914 134.79 24.69C134.482 24.4567 134.076 24.34 133.572 24.34C133.078 24.34 132.672 24.4567 132.354 24.69C132.037 24.914 131.804 25.2127 131.654 25.586C131.514 25.9593 131.444 26.3747 131.444 26.832C131.444 27.28 131.514 27.6907 131.654 28.064C131.804 28.4373 132.037 28.736 132.354 28.96C132.672 29.184 133.078 29.296 133.572 29.296ZM142.021 30.584C141.536 30.584 141.102 30.514 140.719 30.374C140.336 30.234 140.01 30.038 139.739 29.786C139.468 29.5247 139.244 29.2213 139.067 28.876C138.89 28.5213 138.754 28.1387 138.661 27.728C138.577 27.308 138.535 26.8647 138.535 26.398C138.535 25.6887 138.558 25.0307 138.605 24.424C138.652 23.8173 138.764 23.276 138.941 22.8C139.118 22.324 139.398 21.9273 139.781 21.61C140.164 21.2927 140.686 21.0593 141.349 20.91C141.722 20.826 142.096 20.756 142.469 20.7C142.852 20.644 143.244 20.5927 143.645 20.546C143.869 20.5087 144.065 20.4807 144.233 20.462C144.401 20.434 144.555 20.4107 144.695 20.392C144.844 20.364 144.98 20.3407 145.101 20.322V21.708C145.008 21.7453 144.9 21.7733 144.779 21.792C144.667 21.8107 144.55 21.8293 144.429 21.848C144.308 21.8667 144.186 21.8807 144.065 21.89C143.944 21.8993 143.822 21.9133 143.701 21.932C143.58 21.9413 143.463 21.9553 143.351 21.974C142.996 22.002 142.628 22.0347 142.245 22.072C141.872 22.1093 141.517 22.1887 141.181 22.31C140.854 22.422 140.584 22.6367 140.369 22.954C140.266 23.1033 140.178 23.2807 140.103 23.486C140.028 23.6913 139.972 23.906 139.935 24.13C139.907 24.354 139.888 24.5687 139.879 24.774C140.075 24.494 140.308 24.27 140.579 24.102C140.859 23.934 141.153 23.8127 141.461 23.738C141.769 23.6633 142.063 23.626 142.343 23.626C143.015 23.626 143.584 23.7707 144.051 24.06C144.518 24.34 144.872 24.7367 145.115 25.25C145.358 25.754 145.479 26.3373 145.479 27C145.479 27.6907 145.339 28.3067 145.059 28.848C144.788 29.3893 144.392 29.814 143.869 30.122C143.356 30.43 142.74 30.584 142.021 30.584ZM142.035 29.31C142.474 29.31 142.838 29.2073 143.127 29.002C143.426 28.7967 143.65 28.5213 143.799 28.176C143.958 27.8307 144.037 27.4573 144.037 27.056C144.037 26.664 143.958 26.3093 143.799 25.992C143.65 25.6653 143.43 25.4087 143.141 25.222C142.852 25.0353 142.492 24.942 142.063 24.942C141.643 24.942 141.279 25.04 140.971 25.236C140.672 25.432 140.444 25.6933 140.285 26.02C140.126 26.3467 140.047 26.7013 140.047 27.084C140.047 27.4667 140.122 27.8307 140.271 28.176C140.42 28.5213 140.64 28.7967 140.929 29.002C141.218 29.2073 141.587 29.31 142.035 29.31ZM150.252 30.584C149.487 30.584 148.838 30.43 148.306 30.122C147.774 29.8047 147.368 29.3613 147.088 28.792C146.817 28.2227 146.682 27.5647 146.682 26.818C146.682 26.062 146.817 25.404 147.088 24.844C147.368 24.2747 147.774 23.8313 148.306 23.514C148.838 23.1873 149.491 23.024 150.266 23.024C151.031 23.024 151.68 23.1873 152.212 23.514C152.744 23.8313 153.145 24.2747 153.416 24.844C153.687 25.4133 153.822 26.076 153.822 26.832C153.822 27.5693 153.682 28.2227 153.402 28.792C153.131 29.3613 152.73 29.8047 152.198 30.122C151.675 30.43 151.027 30.584 150.252 30.584ZM150.252 29.296C150.756 29.296 151.162 29.184 151.47 28.96C151.787 28.736 152.021 28.4373 152.17 28.064C152.319 27.6907 152.394 27.28 152.394 26.832C152.394 26.384 152.319 25.9733 152.17 25.6C152.021 25.2173 151.787 24.914 151.47 24.69C151.162 24.4567 150.756 24.34 150.252 24.34C149.757 24.34 149.351 24.4567 149.034 24.69C148.717 24.914 148.483 25.2127 148.334 25.586C148.194 25.9593 148.124 26.3747 148.124 26.832C148.124 27.28 148.194 27.6907 148.334 28.064C148.483 28.4373 148.717 28.736 149.034 28.96C149.351 29.184 149.757 29.296 150.252 29.296ZM155.302 30.5V23.122H158.41C158.727 23.122 159.045 23.1453 159.362 23.192C159.689 23.2293 159.983 23.3133 160.244 23.444C160.515 23.5747 160.729 23.766 160.888 24.018C161.056 24.2607 161.14 24.5827 161.14 24.984C161.14 25.2267 161.103 25.446 161.028 25.642C160.953 25.838 160.846 26.0107 160.706 26.16C160.575 26.3 160.407 26.4213 160.202 26.524C160.669 26.6453 161.005 26.8647 161.21 27.182C161.425 27.49 161.532 27.8587 161.532 28.288C161.532 28.68 161.457 29.016 161.308 29.296C161.159 29.576 160.958 29.8047 160.706 29.982C160.454 30.1593 160.169 30.29 159.852 30.374C159.535 30.458 159.208 30.5 158.872 30.5H155.302ZM156.772 29.24H158.62C158.881 29.24 159.119 29.2167 159.334 29.17C159.558 29.114 159.735 29.016 159.866 28.876C160.006 28.736 160.076 28.5447 160.076 28.302C160.076 28.05 160.02 27.8587 159.908 27.728C159.796 27.588 159.651 27.49 159.474 27.434C159.297 27.378 159.105 27.3453 158.9 27.336C158.695 27.3173 158.494 27.308 158.298 27.308H156.772V29.24ZM156.772 26.216H157.864C158.032 26.216 158.223 26.2067 158.438 26.188C158.653 26.16 158.858 26.1133 159.054 26.048C159.259 25.9827 159.423 25.8893 159.544 25.768C159.675 25.6373 159.74 25.46 159.74 25.236C159.74 24.9373 159.656 24.732 159.488 24.62C159.329 24.4987 159.138 24.4287 158.914 24.41C158.69 24.382 158.471 24.368 158.256 24.368H156.772V26.216ZM165.364 30.584C165.038 30.584 164.72 30.542 164.412 30.458C164.104 30.3647 163.829 30.2293 163.586 30.052C163.344 29.8653 163.148 29.6367 162.998 29.366C162.858 29.086 162.788 28.7593 162.788 28.386C162.788 27.938 162.872 27.5693 163.04 27.28C163.218 26.9813 163.451 26.7527 163.74 26.594C164.03 26.426 164.361 26.3093 164.734 26.244C165.117 26.1693 165.514 26.132 165.924 26.132H167.73C167.73 25.768 167.674 25.4507 167.562 25.18C167.45 24.9 167.273 24.6853 167.03 24.536C166.797 24.3773 166.484 24.298 166.092 24.298C165.859 24.298 165.635 24.326 165.42 24.382C165.215 24.4287 165.038 24.508 164.888 24.62C164.739 24.732 164.636 24.8813 164.58 25.068H163.068C163.124 24.7133 163.25 24.41 163.446 24.158C163.642 23.8967 163.885 23.682 164.174 23.514C164.464 23.346 164.772 23.2247 165.098 23.15C165.434 23.066 165.775 23.024 166.12 23.024C166.83 23.024 167.404 23.164 167.842 23.444C168.29 23.724 168.617 24.1253 168.822 24.648C169.028 25.1707 169.13 25.7913 169.13 26.51V30.5H167.884L167.828 29.59C167.614 29.8607 167.366 30.0707 167.086 30.22C166.816 30.36 166.531 30.4533 166.232 30.5C165.934 30.556 165.644 30.584 165.364 30.584ZM165.616 29.366C166.046 29.366 166.419 29.296 166.736 29.156C167.054 29.0067 167.296 28.7967 167.464 28.526C167.642 28.246 167.73 27.9147 167.73 27.532V27.238H166.414C166.144 27.238 165.878 27.2473 165.616 27.266C165.355 27.2753 165.117 27.3127 164.902 27.378C164.697 27.434 164.534 27.532 164.412 27.672C164.291 27.812 164.23 28.0127 164.23 28.274C164.23 28.526 164.296 28.7313 164.426 28.89C164.557 29.0487 164.73 29.17 164.944 29.254C165.159 29.3287 165.383 29.366 165.616 29.366ZM172.597 30.5V24.41H170.105V23.122H176.531V24.41H174.039V30.5H172.597ZM177.532 30.5V23.122H179.002V25.782H180.584C181.023 25.782 181.415 25.8193 181.76 25.894C182.115 25.9687 182.418 26.0947 182.67 26.272C182.932 26.44 183.132 26.6733 183.272 26.972C183.412 27.2613 183.482 27.63 183.482 28.078C183.482 28.498 183.408 28.862 183.258 29.17C183.109 29.478 182.899 29.73 182.628 29.926C182.367 30.122 182.054 30.2667 181.69 30.36C181.336 30.4533 180.948 30.5 180.528 30.5H177.532ZM179.002 29.24H179.8C180.09 29.24 180.365 29.2307 180.626 29.212C180.888 29.1933 181.126 29.1513 181.34 29.086C181.555 29.0113 181.723 28.8993 181.844 28.75C181.975 28.5913 182.04 28.3813 182.04 28.12C182.04 27.8587 181.989 27.658 181.886 27.518C181.784 27.378 181.648 27.2707 181.48 27.196C181.322 27.1213 181.144 27.0747 180.948 27.056C180.762 27.0373 180.566 27.028 180.36 27.028H179.002V29.24ZM192.033 30.584C191.547 30.584 191.113 30.514 190.731 30.374C190.348 30.234 190.021 30.038 189.751 29.786C189.48 29.5247 189.256 29.2213 189.079 28.876C188.901 28.5213 188.766 28.1387 188.673 27.728C188.589 27.308 188.547 26.8647 188.547 26.398C188.547 25.6887 188.57 25.0307 188.617 24.424C188.663 23.8173 188.775 23.276 188.953 22.8C189.13 22.324 189.41 21.9273 189.793 21.61C190.175 21.2927 190.698 21.0593 191.361 20.91C191.734 20.826 192.107 20.756 192.481 20.7C192.863 20.644 193.255 20.5927 193.657 20.546C193.881 20.5087 194.077 20.4807 194.245 20.462C194.413 20.434 194.567 20.4107 194.707 20.392C194.856 20.364 194.991 20.3407 195.113 20.322V21.708C195.019 21.7453 194.912 21.7733 194.791 21.792C194.679 21.8107 194.562 21.8293 194.441 21.848C194.319 21.8667 194.198 21.8807 194.077 21.89C193.955 21.8993 193.834 21.9133 193.713 21.932C193.591 21.9413 193.475 21.9553 193.363 21.974C193.008 22.002 192.639 22.0347 192.257 22.072C191.883 22.1093 191.529 22.1887 191.193 22.31C190.866 22.422 190.595 22.6367 190.381 22.954C190.278 23.1033 190.189 23.2807 190.115 23.486C190.04 23.6913 189.984 23.906 189.947 24.13C189.919 24.354 189.9 24.5687 189.891 24.774C190.087 24.494 190.32 24.27 190.591 24.102C190.871 23.934 191.165 23.8127 191.473 23.738C191.781 23.6633 192.075 23.626 192.355 23.626C193.027 23.626 193.596 23.7707 194.063 24.06C194.529 24.34 194.884 24.7367 195.127 25.25C195.369 25.754 195.491 26.3373 195.491 27C195.491 27.6907 195.351 28.3067 195.071 28.848C194.8 29.3893 194.403 29.814 193.881 30.122C193.367 30.43 192.751 30.584 192.033 30.584ZM192.047 29.31C192.485 29.31 192.849 29.2073 193.139 29.002C193.437 28.7967 193.661 28.5213 193.811 28.176C193.969 27.8307 194.049 27.4573 194.049 27.056C194.049 26.664 193.969 26.3093 193.811 25.992C193.661 25.6653 193.442 25.4087 193.153 25.222C192.863 25.0353 192.504 24.942 192.075 24.942C191.655 24.942 191.291 25.04 190.983 25.236C190.684 25.432 190.455 25.6933 190.297 26.02C190.138 26.3467 190.059 26.7013 190.059 27.084C190.059 27.4667 190.133 27.8307 190.283 28.176C190.432 28.5213 190.651 28.7967 190.941 29.002C191.23 29.2073 191.599 29.31 192.047 29.31ZM200.222 30.584C199.447 30.584 198.798 30.4253 198.276 30.108C197.753 29.7907 197.356 29.352 197.086 28.792C196.824 28.2227 196.694 27.5693 196.694 26.832C196.694 26.0853 196.829 25.4273 197.1 24.858C197.38 24.2887 197.781 23.8407 198.304 23.514C198.836 23.1873 199.475 23.024 200.222 23.024C200.772 23.024 201.253 23.1267 201.664 23.332C202.084 23.528 202.434 23.8033 202.714 24.158C203.003 24.5033 203.213 24.8953 203.344 25.334C203.474 25.7727 203.535 26.2347 203.526 26.72C203.516 26.8227 203.507 26.9207 203.498 27.014C203.498 27.1073 203.493 27.2053 203.484 27.308H198.15C198.178 27.6813 198.271 28.022 198.43 28.33C198.598 28.638 198.831 28.8853 199.13 29.072C199.428 29.2493 199.797 29.338 200.236 29.338C200.478 29.338 200.712 29.31 200.936 29.254C201.169 29.1887 201.374 29.0907 201.552 28.96C201.738 28.82 201.869 28.6427 201.944 28.428H203.4C203.278 28.9227 203.059 29.3333 202.742 29.66C202.434 29.9773 202.056 30.2107 201.608 30.36C201.169 30.5093 200.707 30.584 200.222 30.584ZM198.178 26.16H202.098C202.088 25.796 202.004 25.474 201.846 25.194C201.687 24.9047 201.468 24.6807 201.188 24.522C200.908 24.354 200.572 24.27 200.18 24.27C199.75 24.27 199.391 24.3587 199.102 24.536C198.822 24.7133 198.602 24.9467 198.444 25.236C198.294 25.516 198.206 25.824 198.178 26.16ZM208.219 30.584C207.444 30.584 206.796 30.4253 206.273 30.108C205.76 29.7907 205.372 29.352 205.111 28.792C204.859 28.2227 204.733 27.5693 204.733 26.832C204.733 26.104 204.864 25.4553 205.125 24.886C205.396 24.3073 205.797 23.8547 206.329 23.528C206.87 23.192 207.538 23.024 208.331 23.024C208.872 23.024 209.353 23.1173 209.773 23.304C210.193 23.4813 210.534 23.7473 210.795 24.102C211.066 24.4473 211.243 24.8813 211.327 25.404H209.885C209.764 25.0213 209.558 24.746 209.269 24.578C208.989 24.41 208.658 24.326 208.275 24.326C207.762 24.326 207.351 24.4473 207.043 24.69C206.735 24.9327 206.511 25.2453 206.371 25.628C206.24 26.0107 206.175 26.412 206.175 26.832C206.175 27.2707 206.245 27.6767 206.385 28.05C206.534 28.4233 206.758 28.7267 207.057 28.96C207.365 29.184 207.766 29.296 208.261 29.296C208.634 29.296 208.98 29.2167 209.297 29.058C209.614 28.89 209.82 28.61 209.913 28.218H211.397C211.313 28.7593 211.117 29.2073 210.809 29.562C210.501 29.9073 210.118 30.164 209.661 30.332C209.213 30.5 208.732 30.584 208.219 30.584ZM212.792 30.5V23.122H219.106V30.5H217.664V24.41H214.234V30.5H212.792ZM220.228 30.514V29.226C220.424 29.226 220.592 29.184 220.732 29.1C220.882 29.0067 221.012 28.876 221.124 28.708C221.246 28.5213 221.339 28.26 221.404 27.924C221.47 27.588 221.516 27.238 221.544 26.874C221.582 26.4353 221.605 26.0013 221.614 25.572C221.633 25.1427 221.647 24.7227 221.656 24.312C221.675 23.9013 221.684 23.5047 221.684 23.122H227.018V30.5H225.576V24.41H223.056C223.047 24.718 223.033 25.04 223.014 25.376C223.005 25.712 222.991 26.048 222.972 26.384C222.954 26.7107 222.93 27.0373 222.902 27.364C222.884 27.7373 222.832 28.134 222.748 28.554C222.674 28.974 222.529 29.352 222.314 29.688C222.1 30.0147 221.834 30.234 221.516 30.346C221.208 30.458 220.779 30.514 220.228 30.514ZM231.112 30.584C230.786 30.584 230.468 30.542 230.16 30.458C229.852 30.3647 229.577 30.2293 229.334 30.052C229.092 29.8653 228.896 29.6367 228.746 29.366C228.606 29.086 228.536 28.7593 228.536 28.386C228.536 27.938 228.62 27.5693 228.788 27.28C228.966 26.9813 229.199 26.7527 229.488 26.594C229.778 26.426 230.109 26.3093 230.482 26.244C230.865 26.1693 231.262 26.132 231.672 26.132H233.478C233.478 25.768 233.422 25.4507 233.31 25.18C233.198 24.9 233.021 24.6853 232.778 24.536C232.545 24.3773 232.232 24.298 231.84 24.298C231.607 24.298 231.383 24.326 231.168 24.382C230.963 24.4287 230.786 24.508 230.636 24.62C230.487 24.732 230.384 24.8813 230.328 25.068H228.816C228.872 24.7133 228.998 24.41 229.194 24.158C229.39 23.8967 229.633 23.682 229.922 23.514C230.212 23.346 230.52 23.2247 230.846 23.15C231.182 23.066 231.523 23.024 231.868 23.024C232.578 23.024 233.152 23.164 233.59 23.444C234.038 23.724 234.365 24.1253 234.57 24.648C234.776 25.1707 234.878 25.7913 234.878 26.51V30.5H233.632L233.576 29.59C233.362 29.8607 233.114 30.0707 232.834 30.22C232.564 30.36 232.279 30.4533 231.98 30.5C231.682 30.556 231.392 30.584 231.112 30.584ZM231.364 29.366C231.794 29.366 232.167 29.296 232.484 29.156C232.802 29.0067 233.044 28.7967 233.212 28.526C233.39 28.246 233.478 27.9147 233.478 27.532V27.238H232.162C231.892 27.238 231.626 27.2473 231.364 27.266C231.103 27.2753 230.865 27.3127 230.65 27.378C230.445 27.434 230.282 27.532 230.16 27.672C230.039 27.812 229.978 28.0127 229.978 28.274C229.978 28.526 230.044 28.7313 230.174 28.89C230.305 29.0487 230.478 29.17 230.692 29.254C230.907 29.3287 231.131 29.366 231.364 29.366ZM238.345 30.5V24.41H235.853V23.122H242.279V24.41H239.787V30.5H238.345ZM243.28 30.5V23.122H244.722V26.23H248.124V23.122H249.566V30.5H248.124V27.504H244.722V30.5H243.28ZM254.623 30.584C253.858 30.584 253.209 30.43 252.677 30.122C252.145 29.8047 251.739 29.3613 251.459 28.792C251.189 28.2227 251.053 27.5647 251.053 26.818C251.053 26.062 251.189 25.404 251.459 24.844C251.739 24.2747 252.145 23.8313 252.677 23.514C253.209 23.1873 253.863 23.024 254.637 23.024C255.403 23.024 256.051 23.1873 256.583 23.514C257.115 23.8313 257.517 24.2747 257.787 24.844C258.058 25.4133 258.193 26.076 258.193 26.832C258.193 27.5693 258.053 28.2227 257.773 28.792C257.503 29.3613 257.101 29.8047 256.569 30.122C256.047 30.43 255.398 30.584 254.623 30.584ZM254.623 29.296C255.127 29.296 255.533 29.184 255.841 28.96C256.159 28.736 256.392 28.4373 256.541 28.064C256.691 27.6907 256.765 27.28 256.765 26.832C256.765 26.384 256.691 25.9733 256.541 25.6C256.392 25.2173 256.159 24.914 255.841 24.69C255.533 24.4567 255.127 24.34 254.623 24.34C254.129 24.34 253.723 24.4567 253.405 24.69C253.088 24.914 252.855 25.2127 252.705 25.586C252.565 25.9593 252.495 26.3747 252.495 26.832C252.495 27.28 252.565 27.6907 252.705 28.064C252.855 28.4373 253.088 28.736 253.405 28.96C253.723 29.184 254.129 29.296 254.623 29.296Z" fill="url(#paint1_linear_1_1199)"/>
<defs>
<linearGradient id="paint0_linear_1_1199" x1="178.602" y1="-34.5" x2="170.883" y2="41.0834" gradientUnits="userSpaceOnUse">
<stop stop-color="#5EFF6E"/>
<stop offset="1" stop-color="#464EFF"/>
</linearGradient>
<linearGradient id="paint1_linear_1_1199" x1="180.452" y1="31" x2="182.155" y2="6.54975" gradientUnits="userSpaceOnUse">
<stop stop-color="#464EFF"/>
<stop offset="1" stop-color="#5EFF6E"/>
</linearGradient>
</defs>
</svg>
