<svg width="247" height="52" viewBox="0 0 247 52" fill="none" xmlns="http://www.w3.org/2000/svg">
<rect x="0.75" y="0.75" width="245.5" height="50.5" rx="25.25" stroke="url(#paint0_linear_1_555)" stroke-width="1.5"/>
<path d="M31.5 22.25L31.113 23.2955C30.606 24.6665 30.3525 25.352 29.8522 25.8523C29.352 26.3525 28.6665 26.606 27.2955 27.113L26.25 27.5L27.2955 27.887C28.6665 28.394 29.352 28.6483 29.8522 29.1478C30.3525 29.6473 30.606 30.3335 31.113 31.7045L31.5 32.75L31.887 31.7045C32.394 30.3335 32.6482 29.648 33.1477 29.1478C33.6472 28.6475 34.3335 28.394 35.7045 27.887L36.75 27.5L35.7045 27.113C34.3335 26.606 33.648 26.3525 33.1477 25.8523C32.6475 25.352 32.394 24.6665 31.887 23.2955L31.5 22.25ZM37.5 19.25L37.3342 19.6977C37.1167 20.2857 37.008 20.5797 36.7942 20.7935C36.5797 21.008 36.2857 21.1167 35.6977 21.3335L35.25 21.5L35.6985 21.6657C36.2857 21.8832 36.5797 21.992 36.7935 22.2057C37.008 22.4202 37.1167 22.7142 37.3335 23.3022L37.5 23.75L37.6657 23.3022C37.8832 22.7142 37.992 22.4202 38.2057 22.2065C38.4202 21.992 38.7142 21.8832 39.3022 21.6665L39.75 21.5L39.3015 21.3342C38.7143 21.1167 38.4202 21.008 38.2065 20.7942C37.992 20.5797 37.8832 20.2857 37.6665 19.6977L37.5 19.25Z" stroke="#464EFF" stroke-width="1.35" stroke-linejoin="round"/>
<circle cx="37.5" cy="21.5001" r="0.9" fill="#464EFF"/>
<path d="M51.371 30.5V20.602H59.309V30.5H57.825V21.946H52.855V30.5H51.371ZM64.6486 30.584C63.8832 30.584 63.2346 30.43 62.7026 30.122C62.1706 29.8047 61.7646 29.3613 61.4846 28.792C61.2139 28.2227 61.0786 27.5647 61.0786 26.818C61.0786 26.062 61.2139 25.404 61.4846 24.844C61.7646 24.2747 62.1706 23.8313 62.7026 23.514C63.2346 23.1873 63.8879 23.024 64.6626 23.024C65.4279 23.024 66.0766 23.1873 66.6086 23.514C67.1406 23.8313 67.5419 24.2747 67.8126 24.844C68.0832 25.4133 68.2186 26.076 68.2186 26.832C68.2186 27.5693 68.0786 28.2227 67.7986 28.792C67.5279 29.3613 67.1266 29.8047 66.5946 30.122C66.0719 30.43 65.4232 30.584 64.6486 30.584ZM64.6486 29.296C65.1526 29.296 65.5586 29.184 65.8666 28.96C66.1839 28.736 66.4172 28.4373 66.5666 28.064C66.7159 27.6907 66.7906 27.28 66.7906 26.832C66.7906 26.384 66.7159 25.9733 66.5666 25.6C66.4172 25.2173 66.1839 24.914 65.8666 24.69C65.5586 24.4567 65.1526 24.34 64.6486 24.34C64.1539 24.34 63.7479 24.4567 63.4306 24.69C63.1132 24.914 62.8799 25.2127 62.7306 25.586C62.5906 25.9593 62.5206 26.3747 62.5206 26.832C62.5206 27.28 62.5906 27.6907 62.7306 28.064C62.8799 28.4373 63.1132 28.736 63.4306 28.96C63.7479 29.184 64.1539 29.296 64.6486 29.296ZM69.6984 30.5V23.122H76.0124V30.5H74.5704V24.41H71.1404V30.5H69.6984ZM77.7785 33.188V23.122H79.1505L79.2205 24.186C79.4818 23.794 79.8272 23.5047 80.2565 23.318C80.6858 23.122 81.1432 23.024 81.6285 23.024C82.3565 23.024 82.9585 23.192 83.4345 23.528C83.9105 23.864 84.2652 24.3167 84.4985 24.886C84.7318 25.4553 84.8485 26.0993 84.8485 26.818C84.8485 27.5367 84.7272 28.1807 84.4845 28.75C84.2512 29.3193 83.8872 29.7673 83.3925 30.094C82.9072 30.4207 82.2865 30.584 81.5305 30.584C81.1665 30.584 80.8398 30.5467 80.5505 30.472C80.2612 30.3973 80.0092 30.29 79.7945 30.15C79.5798 30.0007 79.3885 29.842 79.2205 29.674V33.188H77.7785ZM81.3625 29.296C81.8665 29.296 82.2678 29.184 82.5665 28.96C82.8652 28.7267 83.0798 28.4233 83.2105 28.05C83.3412 27.6767 83.4065 27.2707 83.4065 26.832C83.4065 26.3747 83.3365 25.9593 83.1965 25.586C83.0658 25.2033 82.8465 24.9 82.5385 24.676C82.2398 24.4427 81.8385 24.326 81.3345 24.326C80.8772 24.326 80.4898 24.4427 80.1725 24.676C79.8552 24.9 79.6125 25.2033 79.4445 25.586C79.2858 25.9687 79.2065 26.384 79.2065 26.832C79.2065 27.2893 79.2812 27.7093 79.4305 28.092C79.5892 28.4653 79.8272 28.7593 80.1445 28.974C80.4712 29.1887 80.8772 29.296 81.3625 29.296ZM89.5724 30.584C88.8071 30.584 88.1584 30.43 87.6264 30.122C87.0944 29.8047 86.6884 29.3613 86.4084 28.792C86.1377 28.2227 86.0024 27.5647 86.0024 26.818C86.0024 26.062 86.1377 25.404 86.4084 24.844C86.6884 24.2747 87.0944 23.8313 87.6264 23.514C88.1584 23.1873 88.8117 23.024 89.5864 23.024C90.3517 23.024 91.0004 23.1873 91.5324 23.514C92.0644 23.8313 92.4657 24.2747 92.7364 24.844C93.0071 25.4133 93.1424 26.076 93.1424 26.832C93.1424 27.5693 93.0024 28.2227 92.7224 28.792C92.4517 29.3613 92.0504 29.8047 91.5184 30.122C90.9957 30.43 90.3471 30.584 89.5724 30.584ZM89.5724 29.296C90.0764 29.296 90.4824 29.184 90.7904 28.96C91.1077 28.736 91.3411 28.4373 91.4904 28.064C91.6397 27.6907 91.7144 27.28 91.7144 26.832C91.7144 26.384 91.6397 25.9733 91.4904 25.6C91.3411 25.2173 91.1077 24.914 90.7904 24.69C90.4824 24.4567 90.0764 24.34 89.5724 24.34C89.0777 24.34 88.6717 24.4567 88.3544 24.69C88.0371 24.914 87.8037 25.2127 87.6544 25.586C87.5144 25.9593 87.4444 26.3747 87.4444 26.832C87.4444 27.28 87.5144 27.6907 87.6544 28.064C87.8037 28.4373 88.0371 28.736 88.3544 28.96C88.6717 29.184 89.0777 29.296 89.5724 29.296ZM98.021 30.584C97.5356 30.584 97.1016 30.514 96.719 30.374C96.3363 30.234 96.0096 30.038 95.739 29.786C95.4683 29.5247 95.2443 29.2213 95.067 28.876C94.8896 28.5213 94.7543 28.1387 94.661 27.728C94.577 27.308 94.535 26.8647 94.535 26.398C94.535 25.6887 94.5583 25.0307 94.605 24.424C94.6516 23.8173 94.7636 23.276 94.941 22.8C95.1183 22.324 95.3983 21.9273 95.781 21.61C96.1636 21.2927 96.6863 21.0593 97.349 20.91C97.7223 20.826 98.0956 20.756 98.469 20.7C98.8516 20.644 99.2436 20.5927 99.645 20.546C99.869 20.5087 100.065 20.4807 100.233 20.462C100.401 20.434 100.555 20.4107 100.695 20.392C100.844 20.364 100.98 20.3407 101.101 20.322V21.708C101.008 21.7453 100.9 21.7733 100.779 21.792C100.667 21.8107 100.55 21.8293 100.429 21.848C100.308 21.8667 100.186 21.8807 100.065 21.89C99.9436 21.8993 99.8223 21.9133 99.701 21.932C99.5796 21.9413 99.463 21.9553 99.351 21.974C98.9963 22.002 98.6276 22.0347 98.245 22.072C97.8716 22.1093 97.517 22.1887 97.181 22.31C96.8543 22.422 96.5836 22.6367 96.369 22.954C96.2663 23.1033 96.1776 23.2807 96.103 23.486C96.0283 23.6913 95.9723 23.906 95.935 24.13C95.907 24.354 95.8883 24.5687 95.879 24.774C96.075 24.494 96.3083 24.27 96.579 24.102C96.859 23.934 97.153 23.8127 97.461 23.738C97.769 23.6633 98.063 23.626 98.343 23.626C99.015 23.626 99.5843 23.7707 100.051 24.06C100.518 24.34 100.872 24.7367 101.115 25.25C101.358 25.754 101.479 26.3373 101.479 27C101.479 27.6907 101.339 28.3067 101.059 28.848C100.788 29.3893 100.392 29.814 99.869 30.122C99.3556 30.43 98.7396 30.584 98.021 30.584ZM98.035 29.31C98.4736 29.31 98.8376 29.2073 99.127 29.002C99.4256 28.7967 99.6496 28.5213 99.799 28.176C99.9576 27.8307 100.037 27.4573 100.037 27.056C100.037 26.664 99.9576 26.3093 99.799 25.992C99.6496 25.6653 99.4303 25.4087 99.141 25.222C98.8516 25.0353 98.4923 24.942 98.063 24.942C97.643 24.942 97.279 25.04 96.971 25.236C96.6723 25.432 96.4436 25.6933 96.285 26.02C96.1263 26.3467 96.047 26.7013 96.047 27.084C96.047 27.4667 96.1216 27.8307 96.271 28.176C96.4203 28.5213 96.6396 28.7967 96.929 29.002C97.2183 29.2073 97.587 29.31 98.035 29.31ZM106.252 30.584C105.487 30.584 104.838 30.43 104.306 30.122C103.774 29.8047 103.368 29.3613 103.088 28.792C102.817 28.2227 102.682 27.5647 102.682 26.818C102.682 26.062 102.817 25.404 103.088 24.844C103.368 24.2747 103.774 23.8313 104.306 23.514C104.838 23.1873 105.491 23.024 106.266 23.024C107.031 23.024 107.68 23.1873 108.212 23.514C108.744 23.8313 109.145 24.2747 109.416 24.844C109.687 25.4133 109.822 26.076 109.822 26.832C109.822 27.5693 109.682 28.2227 109.402 28.792C109.131 29.3613 108.73 29.8047 108.198 30.122C107.675 30.43 107.027 30.584 106.252 30.584ZM106.252 29.296C106.756 29.296 107.162 29.184 107.47 28.96C107.787 28.736 108.021 28.4373 108.17 28.064C108.319 27.6907 108.394 27.28 108.394 26.832C108.394 26.384 108.319 25.9733 108.17 25.6C108.021 25.2173 107.787 24.914 107.47 24.69C107.162 24.4567 106.756 24.34 106.252 24.34C105.757 24.34 105.351 24.4567 105.034 24.69C104.717 24.914 104.483 25.2127 104.334 25.586C104.194 25.9593 104.124 26.3747 104.124 26.832C104.124 27.28 104.194 27.6907 104.334 28.064C104.483 28.4373 104.717 28.736 105.034 28.96C105.351 29.184 105.757 29.296 106.252 29.296ZM111.302 30.5V23.122H114.41C114.727 23.122 115.045 23.1453 115.362 23.192C115.689 23.2293 115.983 23.3133 116.244 23.444C116.515 23.5747 116.729 23.766 116.888 24.018C117.056 24.2607 117.14 24.5827 117.14 24.984C117.14 25.2267 117.103 25.446 117.028 25.642C116.953 25.838 116.846 26.0107 116.706 26.16C116.575 26.3 116.407 26.4213 116.202 26.524C116.669 26.6453 117.005 26.8647 117.21 27.182C117.425 27.49 117.532 27.8587 117.532 28.288C117.532 28.68 117.457 29.016 117.308 29.296C117.159 29.576 116.958 29.8047 116.706 29.982C116.454 30.1593 116.169 30.29 115.852 30.374C115.535 30.458 115.208 30.5 114.872 30.5H111.302ZM112.772 29.24H114.62C114.881 29.24 115.119 29.2167 115.334 29.17C115.558 29.114 115.735 29.016 115.866 28.876C116.006 28.736 116.076 28.5447 116.076 28.302C116.076 28.05 116.02 27.8587 115.908 27.728C115.796 27.588 115.651 27.49 115.474 27.434C115.297 27.378 115.105 27.3453 114.9 27.336C114.695 27.3173 114.494 27.308 114.298 27.308H112.772V29.24ZM112.772 26.216H113.864C114.032 26.216 114.223 26.2067 114.438 26.188C114.653 26.16 114.858 26.1133 115.054 26.048C115.259 25.9827 115.423 25.8893 115.544 25.768C115.675 25.6373 115.74 25.46 115.74 25.236C115.74 24.9373 115.656 24.732 115.488 24.62C115.329 24.4987 115.138 24.4287 114.914 24.41C114.69 24.382 114.471 24.368 114.256 24.368H112.772V26.216ZM121.364 30.584C121.038 30.584 120.72 30.542 120.412 30.458C120.104 30.3647 119.829 30.2293 119.586 30.052C119.344 29.8653 119.148 29.6367 118.998 29.366C118.858 29.086 118.788 28.7593 118.788 28.386C118.788 27.938 118.872 27.5693 119.04 27.28C119.218 26.9813 119.451 26.7527 119.74 26.594C120.03 26.426 120.361 26.3093 120.734 26.244C121.117 26.1693 121.514 26.132 121.924 26.132H123.73C123.73 25.768 123.674 25.4507 123.562 25.18C123.45 24.9 123.273 24.6853 123.03 24.536C122.797 24.3773 122.484 24.298 122.092 24.298C121.859 24.298 121.635 24.326 121.42 24.382C121.215 24.4287 121.038 24.508 120.888 24.62C120.739 24.732 120.636 24.8813 120.58 25.068H119.068C119.124 24.7133 119.25 24.41 119.446 24.158C119.642 23.8967 119.885 23.682 120.174 23.514C120.464 23.346 120.772 23.2247 121.098 23.15C121.434 23.066 121.775 23.024 122.12 23.024C122.83 23.024 123.404 23.164 123.842 23.444C124.29 23.724 124.617 24.1253 124.822 24.648C125.028 25.1707 125.13 25.7913 125.13 26.51V30.5H123.884L123.828 29.59C123.614 29.8607 123.366 30.0707 123.086 30.22C122.816 30.36 122.531 30.4533 122.232 30.5C121.934 30.556 121.644 30.584 121.364 30.584ZM121.616 29.366C122.046 29.366 122.419 29.296 122.736 29.156C123.054 29.0067 123.296 28.7967 123.464 28.526C123.642 28.246 123.73 27.9147 123.73 27.532V27.238H122.414C122.144 27.238 121.878 27.2473 121.616 27.266C121.355 27.2753 121.117 27.3127 120.902 27.378C120.697 27.434 120.534 27.532 120.412 27.672C120.291 27.812 120.23 28.0127 120.23 28.274C120.23 28.526 120.296 28.7313 120.426 28.89C120.557 29.0487 120.73 29.17 120.944 29.254C121.159 29.3287 121.383 29.366 121.616 29.366ZM128.597 30.5V24.41H126.105V23.122H132.531V24.41H130.039V30.5H128.597ZM133.532 30.5V23.122H135.002V25.782H136.584C137.023 25.782 137.415 25.8193 137.76 25.894C138.115 25.9687 138.418 26.0947 138.67 26.272C138.932 26.44 139.132 26.6733 139.272 26.972C139.412 27.2613 139.482 27.63 139.482 28.078C139.482 28.498 139.408 28.862 139.258 29.17C139.109 29.478 138.899 29.73 138.628 29.926C138.367 30.122 138.054 30.2667 137.69 30.36C137.336 30.4533 136.948 30.5 136.528 30.5H133.532ZM135.002 29.24H135.8C136.09 29.24 136.365 29.2307 136.626 29.212C136.888 29.1933 137.126 29.1513 137.34 29.086C137.555 29.0113 137.723 28.8993 137.844 28.75C137.975 28.5913 138.04 28.3813 138.04 28.12C138.04 27.8587 137.989 27.658 137.886 27.518C137.784 27.378 137.648 27.2707 137.48 27.196C137.322 27.1213 137.144 27.0747 136.948 27.056C136.762 27.0373 136.566 27.028 136.36 27.028H135.002V29.24ZM148.033 30.584C147.547 30.584 147.113 30.514 146.731 30.374C146.348 30.234 146.021 30.038 145.751 29.786C145.48 29.5247 145.256 29.2213 145.079 28.876C144.901 28.5213 144.766 28.1387 144.673 27.728C144.589 27.308 144.547 26.8647 144.547 26.398C144.547 25.6887 144.57 25.0307 144.617 24.424C144.663 23.8173 144.775 23.276 144.953 22.8C145.13 22.324 145.41 21.9273 145.793 21.61C146.175 21.2927 146.698 21.0593 147.361 20.91C147.734 20.826 148.107 20.756 148.481 20.7C148.863 20.644 149.255 20.5927 149.657 20.546C149.881 20.5087 150.077 20.4807 150.245 20.462C150.413 20.434 150.567 20.4107 150.707 20.392C150.856 20.364 150.991 20.3407 151.113 20.322V21.708C151.019 21.7453 150.912 21.7733 150.791 21.792C150.679 21.8107 150.562 21.8293 150.441 21.848C150.319 21.8667 150.198 21.8807 150.077 21.89C149.955 21.8993 149.834 21.9133 149.713 21.932C149.591 21.9413 149.475 21.9553 149.363 21.974C149.008 22.002 148.639 22.0347 148.257 22.072C147.883 22.1093 147.529 22.1887 147.193 22.31C146.866 22.422 146.595 22.6367 146.381 22.954C146.278 23.1033 146.189 23.2807 146.115 23.486C146.04 23.6913 145.984 23.906 145.947 24.13C145.919 24.354 145.9 24.5687 145.891 24.774C146.087 24.494 146.32 24.27 146.591 24.102C146.871 23.934 147.165 23.8127 147.473 23.738C147.781 23.6633 148.075 23.626 148.355 23.626C149.027 23.626 149.596 23.7707 150.063 24.06C150.529 24.34 150.884 24.7367 151.127 25.25C151.369 25.754 151.491 26.3373 151.491 27C151.491 27.6907 151.351 28.3067 151.071 28.848C150.8 29.3893 150.403 29.814 149.881 30.122C149.367 30.43 148.751 30.584 148.033 30.584ZM148.047 29.31C148.485 29.31 148.849 29.2073 149.139 29.002C149.437 28.7967 149.661 28.5213 149.811 28.176C149.969 27.8307 150.049 27.4573 150.049 27.056C150.049 26.664 149.969 26.3093 149.811 25.992C149.661 25.6653 149.442 25.4087 149.153 25.222C148.863 25.0353 148.504 24.942 148.075 24.942C147.655 24.942 147.291 25.04 146.983 25.236C146.684 25.432 146.455 25.6933 146.297 26.02C146.138 26.3467 146.059 26.7013 146.059 27.084C146.059 27.4667 146.133 27.8307 146.283 28.176C146.432 28.5213 146.651 28.7967 146.941 29.002C147.23 29.2073 147.599 29.31 148.047 29.31ZM156.222 30.584C155.447 30.584 154.798 30.4253 154.276 30.108C153.753 29.7907 153.356 29.352 153.086 28.792C152.824 28.2227 152.694 27.5693 152.694 26.832C152.694 26.0853 152.829 25.4273 153.1 24.858C153.38 24.2887 153.781 23.8407 154.304 23.514C154.836 23.1873 155.475 23.024 156.222 23.024C156.772 23.024 157.253 23.1267 157.664 23.332C158.084 23.528 158.434 23.8033 158.714 24.158C159.003 24.5033 159.213 24.8953 159.344 25.334C159.474 25.7727 159.535 26.2347 159.526 26.72C159.516 26.8227 159.507 26.9207 159.498 27.014C159.498 27.1073 159.493 27.2053 159.484 27.308H154.15C154.178 27.6813 154.271 28.022 154.43 28.33C154.598 28.638 154.831 28.8853 155.13 29.072C155.428 29.2493 155.797 29.338 156.236 29.338C156.478 29.338 156.712 29.31 156.936 29.254C157.169 29.1887 157.374 29.0907 157.552 28.96C157.738 28.82 157.869 28.6427 157.944 28.428H159.4C159.278 28.9227 159.059 29.3333 158.742 29.66C158.434 29.9773 158.056 30.2107 157.608 30.36C157.169 30.5093 156.707 30.584 156.222 30.584ZM154.178 26.16H158.098C158.088 25.796 158.004 25.474 157.846 25.194C157.687 24.9047 157.468 24.6807 157.188 24.522C156.908 24.354 156.572 24.27 156.18 24.27C155.75 24.27 155.391 24.3587 155.102 24.536C154.822 24.7133 154.602 24.9467 154.444 25.236C154.294 25.516 154.206 25.824 154.178 26.16ZM164.219 30.584C163.444 30.584 162.796 30.4253 162.273 30.108C161.76 29.7907 161.372 29.352 161.111 28.792C160.859 28.2227 160.733 27.5693 160.733 26.832C160.733 26.104 160.864 25.4553 161.125 24.886C161.396 24.3073 161.797 23.8547 162.329 23.528C162.87 23.192 163.538 23.024 164.331 23.024C164.872 23.024 165.353 23.1173 165.773 23.304C166.193 23.4813 166.534 23.7473 166.795 24.102C167.066 24.4473 167.243 24.8813 167.327 25.404H165.885C165.764 25.0213 165.558 24.746 165.269 24.578C164.989 24.41 164.658 24.326 164.275 24.326C163.762 24.326 163.351 24.4473 163.043 24.69C162.735 24.9327 162.511 25.2453 162.371 25.628C162.24 26.0107 162.175 26.412 162.175 26.832C162.175 27.2707 162.245 27.6767 162.385 28.05C162.534 28.4233 162.758 28.7267 163.057 28.96C163.365 29.184 163.766 29.296 164.261 29.296C164.634 29.296 164.98 29.2167 165.297 29.058C165.614 28.89 165.82 28.61 165.913 28.218H167.397C167.313 28.7593 167.117 29.2073 166.809 29.562C166.501 29.9073 166.118 30.164 165.661 30.332C165.213 30.5 164.732 30.584 164.219 30.584ZM168.792 30.5V23.122H175.106V30.5H173.664V24.41H170.234V30.5H168.792ZM176.228 30.514V29.226C176.424 29.226 176.592 29.184 176.732 29.1C176.882 29.0067 177.012 28.876 177.124 28.708C177.246 28.5213 177.339 28.26 177.404 27.924C177.47 27.588 177.516 27.238 177.544 26.874C177.582 26.4353 177.605 26.0013 177.614 25.572C177.633 25.1427 177.647 24.7227 177.656 24.312C177.675 23.9013 177.684 23.5047 177.684 23.122H183.018V30.5H181.576V24.41H179.056C179.047 24.718 179.033 25.04 179.014 25.376C179.005 25.712 178.991 26.048 178.972 26.384C178.954 26.7107 178.93 27.0373 178.902 27.364C178.884 27.7373 178.832 28.134 178.748 28.554C178.674 28.974 178.529 29.352 178.314 29.688C178.1 30.0147 177.834 30.234 177.516 30.346C177.208 30.458 176.779 30.514 176.228 30.514ZM187.112 30.584C186.786 30.584 186.468 30.542 186.16 30.458C185.852 30.3647 185.577 30.2293 185.334 30.052C185.092 29.8653 184.896 29.6367 184.746 29.366C184.606 29.086 184.536 28.7593 184.536 28.386C184.536 27.938 184.62 27.5693 184.788 27.28C184.966 26.9813 185.199 26.7527 185.488 26.594C185.778 26.426 186.109 26.3093 186.482 26.244C186.865 26.1693 187.262 26.132 187.672 26.132H189.478C189.478 25.768 189.422 25.4507 189.31 25.18C189.198 24.9 189.021 24.6853 188.778 24.536C188.545 24.3773 188.232 24.298 187.84 24.298C187.607 24.298 187.383 24.326 187.168 24.382C186.963 24.4287 186.786 24.508 186.636 24.62C186.487 24.732 186.384 24.8813 186.328 25.068H184.816C184.872 24.7133 184.998 24.41 185.194 24.158C185.39 23.8967 185.633 23.682 185.922 23.514C186.212 23.346 186.52 23.2247 186.846 23.15C187.182 23.066 187.523 23.024 187.868 23.024C188.578 23.024 189.152 23.164 189.59 23.444C190.038 23.724 190.365 24.1253 190.57 24.648C190.776 25.1707 190.878 25.7913 190.878 26.51V30.5H189.632L189.576 29.59C189.362 29.8607 189.114 30.0707 188.834 30.22C188.564 30.36 188.279 30.4533 187.98 30.5C187.682 30.556 187.392 30.584 187.112 30.584ZM187.364 29.366C187.794 29.366 188.167 29.296 188.484 29.156C188.802 29.0067 189.044 28.7967 189.212 28.526C189.39 28.246 189.478 27.9147 189.478 27.532V27.238H188.162C187.892 27.238 187.626 27.2473 187.364 27.266C187.103 27.2753 186.865 27.3127 186.65 27.378C186.445 27.434 186.282 27.532 186.16 27.672C186.039 27.812 185.978 28.0127 185.978 28.274C185.978 28.526 186.044 28.7313 186.174 28.89C186.305 29.0487 186.478 29.17 186.692 29.254C186.907 29.3287 187.131 29.366 187.364 29.366ZM194.345 30.5V24.41H191.853V23.122H198.279V24.41H195.787V30.5H194.345ZM199.28 30.5V23.122H200.722V26.23H204.124V23.122H205.566V30.5H204.124V27.504H200.722V30.5H199.28ZM210.623 30.584C209.858 30.584 209.209 30.43 208.677 30.122C208.145 29.8047 207.739 29.3613 207.459 28.792C207.189 28.2227 207.053 27.5647 207.053 26.818C207.053 26.062 207.189 25.404 207.459 24.844C207.739 24.2747 208.145 23.8313 208.677 23.514C209.209 23.1873 209.863 23.024 210.637 23.024C211.403 23.024 212.051 23.1873 212.583 23.514C213.115 23.8313 213.517 24.2747 213.787 24.844C214.058 25.4133 214.193 26.076 214.193 26.832C214.193 27.5693 214.053 28.2227 213.773 28.792C213.503 29.3613 213.101 29.8047 212.569 30.122C212.047 30.43 211.398 30.584 210.623 30.584ZM210.623 29.296C211.127 29.296 211.533 29.184 211.841 28.96C212.159 28.736 212.392 28.4373 212.541 28.064C212.691 27.6907 212.765 27.28 212.765 26.832C212.765 26.384 212.691 25.9733 212.541 25.6C212.392 25.2173 212.159 24.914 211.841 24.69C211.533 24.4567 211.127 24.34 210.623 24.34C210.129 24.34 209.723 24.4567 209.405 24.69C209.088 24.914 208.855 25.2127 208.705 25.586C208.565 25.9593 208.495 26.3747 208.495 26.832C208.495 27.28 208.565 27.6907 208.705 28.064C208.855 28.4373 209.088 28.736 209.405 28.96C209.723 29.184 210.129 29.296 210.623 29.296Z" fill="url(#paint1_linear_1_555)"/>
<defs>
<linearGradient id="paint0_linear_1_555" x1="134.908" y1="-34.5" x2="124.767" y2="40.5006" gradientUnits="userSpaceOnUse">
<stop stop-color="#5EFF6E"/>
<stop offset="1" stop-color="#464EFF"/>
</linearGradient>
<linearGradient id="paint1_linear_1_555" x1="136.452" y1="31" x2="138.155" y2="6.54975" gradientUnits="userSpaceOnUse">
<stop stop-color="#464EFF"/>
<stop offset="1" stop-color="#5EFF6E"/>
</linearGradient>
</defs>
</svg>
