<svg width="180" height="52" viewBox="0 0 180 52" fill="none" xmlns="http://www.w3.org/2000/svg">
<rect width="180" height="52" rx="26" fill="url(#paint0_linear_1_552)"/>
<path d="M42.25 32H37.75M34 27.3501V23.1501C34 22.3101 34 21.8897 34.1635 21.5688C34.3073 21.2866 34.5366 21.0573 34.8188 20.9135C35.1397 20.75 35.5601 20.75 36.4001 20.75H43.6001C44.4402 20.75 44.8597 20.75 45.1805 20.9135C45.4628 21.0573 45.6929 21.2866 45.8367 21.5688C46 21.8894 46 22.3092 46 23.1477V27.3523C46 28.1908 46 28.61 45.8367 28.9305C45.6929 29.2128 45.4628 29.4429 45.1805 29.5867C44.86 29.75 44.4408 29.75 43.6023 29.75H36.3977C35.5592 29.75 35.1394 29.75 34.8188 29.5867C34.5366 29.4429 34.3073 29.2128 34.1635 28.9305C34 28.6097 34 28.1902 34 27.3501Z" stroke="white" stroke-width="1.35" stroke-linecap="round" stroke-linejoin="round"/>
<path d="M62.6683 21.932C62.1456 21.932 61.693 22.03 61.3103 22.226C60.937 22.422 60.629 22.6833 60.3863 23.01C60.1436 23.3367 59.9616 23.7193 59.8403 24.158C59.7283 24.5873 59.6723 25.04 59.6723 25.516C59.6723 26.0013 59.733 26.4633 59.8543 26.902C59.9756 27.3407 60.1576 27.728 60.4003 28.064C60.6523 28.3907 60.9696 28.652 61.3523 28.848C61.735 29.044 62.1876 29.142 62.7103 29.142C63.3543 29.142 63.891 29.002 64.3203 28.722C64.759 28.442 65.0343 28.064 65.1463 27.588H66.7703C66.6956 28.064 66.537 28.4887 66.2943 28.862C66.061 29.2353 65.767 29.5527 65.4123 29.814C65.0576 30.066 64.647 30.262 64.1803 30.402C63.7136 30.5327 63.2143 30.598 62.6823 30.598C61.9076 30.598 61.2263 30.472 60.6383 30.22C60.0596 29.968 59.5743 29.618 59.1823 29.17C58.7903 28.722 58.4963 28.19 58.3003 27.574C58.1043 26.958 58.0063 26.2813 58.0063 25.544C58.0063 24.8253 58.1043 24.158 58.3003 23.542C58.5056 22.9167 58.8043 22.38 59.1963 21.932C59.5883 21.4747 60.0736 21.12 60.6523 20.868C61.2403 20.6067 61.9216 20.476 62.6963 20.476C63.7883 20.476 64.689 20.7327 65.3983 21.246C66.1076 21.7593 66.537 22.5153 66.6863 23.514H65.0903C64.969 23.0287 64.6983 22.646 64.2783 22.366C63.8583 22.0767 63.3216 21.932 62.6683 21.932ZM71.5571 22.996C72.1451 22.996 72.6631 23.0893 73.1111 23.276C73.5591 23.4627 73.9371 23.724 74.2451 24.06C74.5624 24.3867 74.8004 24.7833 74.9591 25.25C75.1178 25.7167 75.1971 26.2347 75.1971 26.804C75.1971 27.3827 75.1178 27.9053 74.9591 28.372C74.8098 28.8293 74.5811 29.226 74.2731 29.562C73.9651 29.898 73.5824 30.1547 73.1251 30.332C72.6771 30.5093 72.1544 30.598 71.5571 30.598C70.9691 30.598 70.4511 30.5093 70.0031 30.332C69.5551 30.1453 69.1771 29.8887 68.8691 29.562C68.5704 29.226 68.3418 28.8247 68.1831 28.358C68.0338 27.8913 67.9591 27.3733 67.9591 26.804C67.9591 26.2347 68.0338 25.7167 68.1831 25.25C68.3418 24.7833 68.5751 24.3867 68.8831 24.06C69.1911 23.724 69.5691 23.4627 70.0171 23.276C70.4651 23.0893 70.9784 22.996 71.5571 22.996ZM71.5571 29.212C71.9211 29.212 72.2291 29.1513 72.4811 29.03C72.7424 28.8993 72.9524 28.7267 73.1111 28.512C73.2791 28.2973 73.4004 28.0453 73.4751 27.756C73.5591 27.4667 73.6011 27.154 73.6011 26.818C73.6011 26.482 73.5591 26.1693 73.4751 25.88C73.4004 25.5813 73.2791 25.3247 73.1111 25.11C72.9524 24.8953 72.7424 24.7273 72.4811 24.606C72.2291 24.4847 71.9211 24.424 71.5571 24.424C71.2024 24.424 70.8944 24.4847 70.6331 24.606C70.3811 24.7273 70.1711 24.8953 70.0031 25.11C69.8444 25.3247 69.7231 25.5813 69.6391 25.88C69.5644 26.1693 69.5271 26.482 69.5271 26.818C69.5271 27.154 69.5644 27.4667 69.6391 27.756C69.7231 28.0453 69.8444 28.2973 70.0031 28.512C70.1711 28.7267 70.3811 28.8993 70.6331 29.03C70.8944 29.1513 71.2024 29.212 71.5571 29.212ZM81.4913 26.552C81.8833 26.6827 82.1726 26.8973 82.3593 27.196C82.546 27.4853 82.6393 27.812 82.6393 28.176C82.6393 28.1947 82.6393 28.2133 82.6393 28.232C82.6393 28.6987 82.546 29.086 82.3593 29.394C82.1726 29.702 81.9206 29.9493 81.6033 30.136C81.2953 30.3133 80.9593 30.4347 80.5953 30.5C80.2406 30.5653 79.8766 30.598 79.5033 30.598C79.1393 30.598 78.766 30.5653 78.3833 30.5C78.01 30.4253 77.6646 30.2993 77.3473 30.122C77.0393 29.9447 76.7826 29.7113 76.5773 29.422C76.372 29.1327 76.2553 28.7687 76.2273 28.33H77.7673C77.8046 28.5167 77.884 28.6707 78.0053 28.792C78.136 28.9133 78.2853 29.0113 78.4533 29.086C78.6213 29.1607 78.7986 29.212 78.9853 29.24C79.172 29.268 79.3446 29.282 79.5033 29.282C79.6713 29.282 79.8533 29.2727 80.0493 29.254C80.2453 29.226 80.418 29.1793 80.5673 29.114C80.726 29.0393 80.8566 28.9413 80.9593 28.82C81.062 28.6893 81.1133 28.5213 81.1133 28.316C81.1133 27.9613 80.978 27.7233 80.7073 27.602C80.446 27.4807 80.1146 27.42 79.7133 27.42H78.4813V26.16H79.5873C79.9326 26.16 80.2266 26.09 80.4693 25.95C80.712 25.81 80.8333 25.5673 80.8333 25.222C80.8333 25.0447 80.7866 24.9 80.6933 24.788C80.6093 24.6667 80.502 24.5733 80.3713 24.508C80.2406 24.4427 80.096 24.4007 79.9373 24.382C79.7786 24.354 79.6386 24.34 79.5173 24.34C79.3586 24.34 79.1953 24.354 79.0273 24.382C78.8593 24.4007 78.7006 24.4427 78.5513 24.508C78.402 24.5733 78.276 24.662 78.1733 24.774C78.0706 24.886 78.01 25.0307 77.9913 25.208H76.4653C76.5026 24.7693 76.6193 24.41 76.8153 24.13C77.0113 23.8407 77.254 23.612 77.5433 23.444C77.8326 23.276 78.15 23.1593 78.4953 23.094C78.85 23.0287 79.2 22.996 79.5453 22.996C79.8906 22.996 80.2266 23.0287 80.5533 23.094C80.8893 23.1593 81.1973 23.2807 81.4773 23.458C81.7573 23.6353 81.972 23.85 82.1213 24.102C82.28 24.3447 82.3593 24.662 82.3593 25.054C82.3593 25.4087 82.2753 25.712 82.1073 25.964C81.9486 26.216 81.7433 26.412 81.4913 26.552ZM84.6914 25.754C84.7194 25.306 84.7381 24.872 84.7474 24.452C84.7567 24.0227 84.7614 23.5793 84.7614 23.122H90.4454V29.142H91.4114V32.656H89.8574V30.5H84.8174V32.656H83.2634V29.142C83.5341 29.142 83.7581 29.058 83.9354 28.89C84.1221 28.7127 84.2481 28.5167 84.3134 28.302C84.3787 28.1527 84.4347 27.952 84.4814 27.7C84.5281 27.4387 84.5654 27.182 84.5934 26.93C84.6214 26.678 84.6447 26.4447 84.6634 26.23C84.6821 26.0153 84.6914 25.8567 84.6914 25.754ZM88.8494 24.508H86.2174C86.1987 24.844 86.1847 25.208 86.1754 25.6C86.1661 25.992 86.1521 26.37 86.1334 26.734C86.1147 26.9113 86.0961 27.1027 86.0774 27.308C86.0681 27.5133 86.0447 27.7233 86.0074 27.938C85.9701 28.1433 85.9187 28.3487 85.8534 28.554C85.7881 28.7593 85.6994 28.9553 85.5874 29.142H88.8494V24.508ZM97.2803 29.59C97.0377 29.9353 96.7157 30.192 96.3143 30.36C95.913 30.5187 95.465 30.598 94.9703 30.598C94.5783 30.598 94.219 30.5513 93.8923 30.458C93.575 30.3647 93.295 30.2247 93.0523 30.038C92.8097 29.842 92.6183 29.604 92.4783 29.324C92.3383 29.0347 92.2683 28.708 92.2683 28.344C92.2683 27.9427 92.3477 27.602 92.5063 27.322C92.665 27.0327 92.8797 26.7993 93.1503 26.622C93.4303 26.4447 93.757 26.314 94.1303 26.23C94.5037 26.1367 94.8957 26.09 95.3063 26.09H97.1963C97.1963 25.5487 97.075 25.1287 96.8323 24.83C96.5897 24.5313 96.165 24.3773 95.5583 24.368C95.2037 24.368 94.8957 24.4287 94.6343 24.55C94.3823 24.6713 94.2143 24.872 94.1303 25.152H92.4923C92.5483 24.76 92.6743 24.4287 92.8703 24.158C93.0757 23.8873 93.3183 23.6633 93.5983 23.486C93.8877 23.3087 94.205 23.1827 94.5503 23.108C94.905 23.0333 95.2597 22.996 95.6143 22.996C96.0717 22.996 96.4963 23.0567 96.8883 23.178C97.2803 23.2993 97.621 23.5047 97.9103 23.794C98.237 24.13 98.4563 24.5313 98.5683 24.998C98.6803 25.4647 98.7363 25.9733 98.7363 26.524V30.5H97.3503L97.2803 29.59ZM97.1963 27.224H95.6563C95.3857 27.224 95.115 27.2473 94.8443 27.294C94.5737 27.3313 94.3403 27.4293 94.1443 27.588C93.9577 27.7373 93.8643 27.9567 93.8643 28.246C93.8643 28.6007 93.9903 28.8713 94.2423 29.058C94.5037 29.2353 94.821 29.324 95.1943 29.324C95.4837 29.324 95.7497 29.2867 95.9923 29.212C96.2443 29.1373 96.459 29.016 96.6363 28.848C96.8137 28.6707 96.949 28.4513 97.0423 28.19C97.145 27.9193 97.1963 27.5973 97.1963 27.224ZM106.204 23.122V24.508H103.712V30.5H102.13V24.508H99.638V23.122H106.204ZM107.122 23.122H108.718V25.614H110.37C110.799 25.614 111.187 25.6513 111.532 25.726C111.887 25.7913 112.19 25.9173 112.442 26.104C112.703 26.2907 112.904 26.5333 113.044 26.832C113.193 27.1307 113.268 27.4993 113.268 27.938C113.268 28.4327 113.175 28.848 112.988 29.184C112.811 29.5107 112.573 29.772 112.274 29.968C111.985 30.164 111.653 30.304 111.28 30.388C110.907 30.4627 110.529 30.5 110.146 30.5H107.122V23.122ZM109.964 29.17C110.179 29.17 110.389 29.156 110.594 29.128C110.809 29.0907 110.991 29.0347 111.14 28.96C111.299 28.876 111.425 28.7593 111.518 28.61C111.621 28.4607 111.677 28.2647 111.686 28.022C111.686 27.7607 111.63 27.56 111.518 27.42C111.406 27.28 111.266 27.1773 111.098 27.112C110.93 27.0467 110.743 27.0093 110.538 27C110.342 26.9907 110.16 26.986 109.992 26.986H108.718V29.156L109.964 29.17ZM121.718 30.598C121.13 30.598 120.612 30.5093 120.164 30.332C119.725 30.1453 119.356 29.8887 119.058 29.562C118.768 29.226 118.549 28.8293 118.4 28.372C118.26 27.9053 118.19 27.392 118.19 26.832C118.19 26.272 118.264 25.7587 118.414 25.292C118.572 24.8253 118.806 24.424 119.114 24.088C119.422 23.752 119.795 23.486 120.234 23.29C120.672 23.094 121.181 22.996 121.76 22.996C122.17 22.996 122.548 23.0427 122.894 23.136C123.248 23.22 123.561 23.3647 123.832 23.57C124.102 23.766 124.336 24.018 124.532 24.326C124.728 24.6247 124.863 24.9887 124.938 25.418H123.286C123.202 25.1007 123.02 24.858 122.74 24.69C122.469 24.5127 122.133 24.424 121.732 24.424C121.377 24.424 121.074 24.4893 120.822 24.62C120.57 24.7507 120.364 24.928 120.206 25.152C120.047 25.376 119.93 25.6373 119.856 25.936C119.79 26.2253 119.758 26.5287 119.758 26.846C119.758 27.1727 119.795 27.4807 119.87 27.77C119.944 28.0593 120.061 28.3113 120.22 28.526C120.388 28.7313 120.598 28.8993 120.85 29.03C121.102 29.1513 121.405 29.212 121.76 29.212C122.18 29.212 122.525 29.1187 122.796 28.932C123.076 28.7453 123.253 28.498 123.328 28.19H124.966C124.891 28.61 124.751 28.974 124.546 29.282C124.35 29.59 124.107 29.842 123.818 30.038C123.528 30.234 123.206 30.3787 122.852 30.472C122.497 30.556 122.119 30.598 121.718 30.598ZM131.091 29.59C130.848 29.9353 130.526 30.192 130.125 30.36C129.724 30.5187 129.276 30.598 128.781 30.598C128.389 30.598 128.03 30.5513 127.703 30.458C127.386 30.3647 127.106 30.2247 126.863 30.038C126.62 29.842 126.429 29.604 126.289 29.324C126.149 29.0347 126.079 28.708 126.079 28.344C126.079 27.9427 126.158 27.602 126.317 27.322C126.476 27.0327 126.69 26.7993 126.961 26.622C127.241 26.4447 127.568 26.314 127.941 26.23C128.314 26.1367 128.706 26.09 129.117 26.09H131.007C131.007 25.5487 130.886 25.1287 130.643 24.83C130.4 24.5313 129.976 24.3773 129.369 24.368C129.014 24.368 128.706 24.4287 128.445 24.55C128.193 24.6713 128.025 24.872 127.941 25.152H126.303C126.359 24.76 126.485 24.4287 126.681 24.158C126.886 23.8873 127.129 23.6633 127.409 23.486C127.698 23.3087 128.016 23.1827 128.361 23.108C128.716 23.0333 129.07 22.996 129.425 22.996C129.882 22.996 130.307 23.0567 130.699 23.178C131.091 23.2993 131.432 23.5047 131.721 23.794C132.048 24.13 132.267 24.5313 132.379 24.998C132.491 25.4647 132.547 25.9733 132.547 26.524V30.5H131.161L131.091 29.59ZM131.007 27.224H129.467C129.196 27.224 128.926 27.2473 128.655 27.294C128.384 27.3313 128.151 27.4293 127.955 27.588C127.768 27.7373 127.675 27.9567 127.675 28.246C127.675 28.6007 127.801 28.8713 128.053 29.058C128.314 29.2353 128.632 29.324 129.005 29.324C129.294 29.324 129.56 29.2867 129.803 29.212C130.055 29.1373 130.27 29.016 130.447 28.848C130.624 28.6707 130.76 28.4513 130.853 28.19C130.956 27.9193 131.007 27.5973 131.007 27.224ZM137.775 21.148C138.101 21.148 138.372 21.0733 138.587 20.924C138.801 20.7747 138.923 20.5367 138.951 20.21H140.351C140.285 20.938 140.024 21.47 139.567 21.806C139.119 22.142 138.521 22.31 137.775 22.31C137.009 22.31 136.398 22.142 135.941 21.806C135.493 21.47 135.241 20.938 135.185 20.21H136.585C136.622 20.5367 136.743 20.7747 136.949 20.924C137.163 21.0733 137.439 21.148 137.775 21.148ZM135.745 30.5H134.261V23.122H135.857V28.19L139.609 23.122H141.051V30.5H139.455V25.544C139.445 25.5627 138.209 27.2147 135.745 30.5ZM148.546 23.122V24.508H146.054V30.5H144.472V24.508H141.98V23.122H148.546Z" fill="white"/>
<defs>
<linearGradient id="paint0_linear_1_552" x1="99" y1="-25" x2="86" y2="43" gradientUnits="userSpaceOnUse">
<stop stop-color="#5EFF6E"/>
<stop offset="1" stop-color="#464EFF"/>
</linearGradient>
</defs>
</svg>
