<svg width="28" height="28" viewBox="0 0 28 28" fill="none" xmlns="http://www.w3.org/2000/svg">
<path d="M17.1094 8.63343C17.1094 6.95817 15.7513 5.6001 14.0761 5.6001C12.4008 5.6001 11.0427 6.95817 11.0427 8.63343V13.689C11.0427 15.3642 12.4008 16.7223 14.0761 16.7223C15.7513 16.7223 17.1094 15.3642 17.1094 13.689V8.63343Z" stroke="#BCBCBD" stroke-width="2" stroke-linecap="round" stroke-linejoin="round"/>
<path d="M21.1557 13.689C21.1557 14.6184 20.9726 15.5388 20.6169 16.3975C20.2612 17.2562 19.7399 18.0365 19.0826 18.6937C18.4254 19.3509 17.6452 19.8723 16.7864 20.228C15.9277 20.5837 15.0074 20.7667 14.0779 20.7667M14.0779 20.7667C13.1484 20.7667 12.2281 20.5837 11.3693 20.228C10.5106 19.8723 9.73039 19.3509 9.07315 18.6937C8.41592 18.0365 7.89458 17.2562 7.53889 16.3975C7.18319 15.5388 7.00012 14.6184 7.00012 13.689M14.0779 20.7667V23.8001" stroke="#BCBCBD" stroke-width="2" stroke-linecap="round" stroke-linejoin="round"/>
</svg>
