<svg width="24" height="24" viewBox="0 0 24 24" fill="none" xmlns="http://www.w3.org/2000/svg">
<path d="M14.6652 7.3998C14.6652 5.96386 13.5011 4.7998 12.0652 4.7998C10.6293 4.7998 9.46521 5.96386 9.46521 7.3998V11.7331C9.46521 13.1691 10.6293 14.3331 12.0652 14.3331C13.5011 14.3331 14.6652 13.1691 14.6652 11.7331V7.3998Z" stroke="#BCBCBD" stroke-width="1.5" stroke-linecap="round" stroke-linejoin="round"/>
<path d="M18.1334 11.7329C18.1334 12.5296 17.9765 13.3185 17.6716 14.0545C17.3667 14.7906 16.9198 15.4593 16.3565 16.0227C15.7932 16.586 15.1244 17.0329 14.3883 17.3378C13.6523 17.6427 12.8634 17.7996 12.0667 17.7996M12.0667 17.7996C11.27 17.7996 10.4812 17.6427 9.74511 17.3378C9.00907 17.0329 8.34029 16.586 7.77695 16.0227C7.2136 15.4593 6.76674 14.7906 6.46186 14.0545C6.15698 13.3185 6.00006 12.5296 6.00006 11.7329M12.0667 17.7996V20.3996" stroke="#BCBCBD" stroke-width="1.5" stroke-linecap="round" stroke-linejoin="round"/>
</svg>
