<svg width="34" height="42" viewBox="0 0 34 42" fill="none" xmlns="http://www.w3.org/2000/svg">
<path d="M8.50062 29.4184C9.49621 29.4184 10.4515 29.2476 11.3393 28.9361V13.0619C10.4515 12.7505 9.49616 12.5806 8.50062 12.5806C3.80585 12.5806 0 16.3499 0 20.9995C0.000155603 25.649 3.80595 29.4184 8.50062 29.4184Z" fill="#D9D9D9"/>
<path d="M8.50062 29.4184C9.49621 29.4184 10.4515 29.2476 11.3393 28.9361V13.0619C10.4515 12.7505 9.49616 12.5806 8.50062 12.5806C3.80585 12.5806 0 16.3499 0 20.9995C0.000155603 25.649 3.80595 29.4184 8.50062 29.4184Z" fill="url(#paint0_linear_1_1178)"/>
<path d="M33.9982 21C33.9982 12.2449 29.4996 4.53125 22.6677 0L22.6666 11.6939L22.6677 30.1258V42C29.4996 37.4686 33.9982 29.755 33.9982 21Z" fill="url(#paint1_linear_1_1178)"/>
<path d="M22.6688 11.694C20.1214 7.89696 16.0601 5.18372 11.3378 4.39746V13.0619V28.9361V37.6027C16.0602 36.8165 20.1227 33.9231 22.6701 30.1257L22.6688 11.694Z" fill="url(#paint2_linear_1_1178)"/>
<defs>
<linearGradient id="paint0_linear_1_1178" x1="0" y1="21.1235" x2="11.0634" y2="21.1235" gradientUnits="userSpaceOnUse">
<stop offset="1" stop-color="#FFD800"/>
</linearGradient>
<linearGradient id="paint1_linear_1_1178" x1="33.9982" y1="21.2244" x2="22.6554" y2="21.2244" gradientUnits="userSpaceOnUse">
<stop stop-color="#4B73FF"/>
<stop offset="1" stop-color="#4B73FF" stop-opacity="0"/>
</linearGradient>
<linearGradient id="paint2_linear_1_1178" x1="11.3336" y1="21.1729" x2="22.6701" y2="21.1729" gradientUnits="userSpaceOnUse">
<stop stop-color="#D96FD6" stop-opacity="0"/>
<stop offset="1" stop-color="#D96FD6"/>
</linearGradient>
</defs>
</svg>
