<svg width="22" height="22" viewBox="0 0 22 22" fill="none" xmlns="http://www.w3.org/2000/svg">
<path d="M20.2755 0.00895086C20.7157 0.0519401 21.1281 0.24654 21.4409 0.559245C21.7534 0.871864 21.9471 1.28365 21.9902 1.72359C22.0332 2.1638 21.9226 2.60592 21.6763 2.97328L17.784 8.8117C16.485 10.7594 14.7925 12.4126 12.8176 13.6692C12.7903 13.6893 12.7619 13.7085 12.7313 13.7251C11.8292 14.2915 10.8755 14.7696 9.88372 15.1553C9.92262 15.3722 9.94453 15.5951 9.94453 15.8223C9.94454 16.9836 9.56095 18.1127 8.85375 19.0338C8.14647 19.955 7.15458 20.6173 6.03264 20.9172C4.91077 21.217 3.72092 21.1379 2.64848 20.6926C1.57593 20.2471 0.679458 19.4597 0.100054 18.4531C-0.0383307 18.2124 -0.0329458 17.9149 0.113786 17.6792C0.26082 17.4434 0.52613 17.3076 0.803371 17.3261C1.0092 17.3398 1.21626 17.311 1.41056 17.2417C1.60478 17.1724 1.78278 17.0638 1.93339 16.9229C2.08406 16.782 2.20439 16.6109 2.28652 16.4216C2.3685 16.2325 2.41109 16.0285 2.41109 15.8223C2.41104 14.9485 2.71488 14.1014 3.27038 13.4269C3.82585 12.7527 4.59848 12.2926 5.45586 12.1252C5.91675 12.0353 6.38643 12.0357 6.84189 12.1174C7.17393 11.2631 7.57389 10.4366 8.04057 9.64744L8.29954 9.22466C9.55974 7.2311 11.2262 5.52549 13.1884 4.21708L19.0268 0.324806V0.323825C19.3941 0.0775702 19.8355 -0.0339331 20.2755 0.00895086ZM6.95176 13.7006C6.5673 13.5603 6.14998 13.5243 5.74425 13.6035C5.22976 13.704 4.76603 13.9806 4.43276 14.3853C4.09951 14.79 3.91773 15.2981 3.91778 15.8223L3.91386 15.9773C3.89535 16.3369 3.81229 16.6909 3.66863 17.022C3.50438 17.4005 3.26371 17.7416 2.96237 18.0235C2.71229 18.2573 2.42369 18.4448 2.11093 18.5816C2.43569 18.8829 2.81166 19.1284 3.22624 19.3006C3.99227 19.6188 4.84186 19.6756 5.64321 19.4615C6.44453 19.2473 7.1528 18.7745 7.65802 18.1167C8.16325 17.4587 8.43785 16.6519 8.43785 15.8223C8.43783 15.5205 8.37831 15.2342 8.27207 14.9738V14.9728C8.07501 14.4871 7.71478 14.0847 7.25388 13.835C7.20445 13.8082 7.1538 13.7833 7.10282 13.7604C7.09032 13.7569 7.077 13.7548 7.06456 13.7506C7.02496 13.7371 6.98749 13.7197 6.95176 13.7006ZM9.21866 10.6215C8.84306 11.2798 8.5168 11.965 8.24264 12.6716C8.67542 12.9553 9.04121 13.3264 9.32361 13.7565C10.0316 13.482 10.7182 13.1558 11.3777 12.7795C10.854 11.8876 10.1109 11.1446 9.21866 10.6215ZM20.1294 1.50877C20.0366 1.49974 19.943 1.52354 19.8655 1.57547L19.8645 1.57646L14.0242 5.4707C12.4647 6.51056 11.1109 7.82626 10.0289 9.3512C11.1058 9.99351 12.0053 10.8936 12.6479 11.9702C14.1734 10.8883 15.4901 9.5347 16.5304 7.97498L20.4237 2.13558L20.4246 2.13362C20.4765 2.05624 20.5003 1.96342 20.4914 1.87073C20.4823 1.77789 20.4406 1.69048 20.3746 1.62452C20.3087 1.5588 20.222 1.51783 20.1294 1.50877Z" fill="currentColor" />
</svg>
