<svg width="24" height="24" viewBox="0 0 24 24" fill="none" xmlns="http://www.w3.org/2000/svg">
<path fill-rule="evenodd" clip-rule="evenodd" d="M10.3989 2.479L10.4004 2.4775C10.6304 2.3885 11.1264 2.25 12.0019 2.25C12.8774 2.25 13.3744 2.3885 13.6039 2.4775L13.6049 2.479C13.6144 2.489 13.6274 2.5075 13.6399 2.534C14.2209 3.708 14.9089 4.6275 15.8929 5.2005C16.8779 5.774 18.0179 5.9175 19.3299 5.8355C19.351 5.834 19.3721 5.83518 19.3929 5.839C19.5849 5.995 19.9539 6.359 20.3924 7.123C20.8324 7.89 20.9614 8.394 20.9994 8.6395L20.9979 8.643C20.9906 8.66426 20.9805 8.68444 20.9679 8.703C20.2434 9.8 19.7974 10.86 19.7974 12C19.7974 13.14 20.2439 14.2 20.9674 15.297C20.98 15.3156 20.9901 15.3357 20.9974 15.357L20.9989 15.3605C20.9614 15.606 20.8324 16.1105 20.3919 16.877C19.9534 17.641 19.5854 18.005 19.3929 18.161C19.372 18.1649 19.3506 18.166 19.3294 18.1645C18.0179 18.0825 16.8779 18.226 15.8924 18.7995C14.9084 19.3725 14.2204 20.292 13.6399 21.466C13.6307 21.4858 13.6189 21.5043 13.6049 21.521L13.6034 21.5225C13.3734 21.6115 12.8774 21.75 12.0014 21.75C11.1264 21.75 10.6299 21.6115 10.3999 21.5225C10.3674 21.4843 10.336 21.4451 10.3059 21.405L10.2224 21.2975C9.94639 20.9455 9.26639 20.1745 8.33939 19.489C7.42838 18.815 6.15088 18.129 4.71088 18.1655C4.67747 18.1672 4.64397 18.1655 4.61088 18.1605C4.41888 18.0055 4.05088 17.641 3.61188 16.877C3.17188 16.11 3.04238 15.606 3.00488 15.3605L3.00588 15.357C3.0133 15.3357 3.02356 15.3155 3.03638 15.297C3.76038 14.2 4.20588 13.14 4.20588 12C4.20588 10.86 3.76088 9.8 3.03738 8.7035C3.02456 8.68497 3.0143 8.66478 3.00688 8.6435L3.00538 8.6395C3.04338 8.3945 3.17238 7.8895 3.61238 7.123C4.05088 6.359 4.41938 5.995 4.61138 5.839C4.63234 5.8353 4.65368 5.83429 4.67488 5.836C5.98689 5.918 7.12638 5.7735 8.11138 5.2C9.09538 4.627 9.78339 3.7075 10.3639 2.534C10.3731 2.51422 10.3849 2.49573 10.3989 2.479ZM12.0024 0.25C10.8539 0.25 10.0869 0.4425 9.59939 0.6445C9.33297 0.757683 9.09594 0.930241 8.90639 1.149C8.77294 1.29945 8.66027 1.46711 8.57139 1.6475C8.07689 2.6475 7.61189 3.177 7.10538 3.472C6.59988 3.7665 5.91188 3.909 4.80038 3.84C4.59889 3.82711 4.39657 3.84141 4.19888 3.8825C3.91567 3.9384 3.64892 4.05809 3.41888 4.2325C3.00188 4.5555 2.45288 5.127 1.87888 6.1275C1.30388 7.1275 1.08738 7.8905 1.01788 8.414C0.983231 8.69982 1.01313 8.98977 1.10538 9.2625C1.17038 9.4615 1.26188 9.6435 1.36788 9.8045C1.98288 10.7365 2.20638 11.4085 2.20638 11.9995C2.20638 12.5915 1.98288 13.2635 1.36788 14.1955C1.25649 14.3636 1.1682 14.5459 1.10538 14.7375C1.01306 15.0104 0.983156 15.3005 1.01788 15.5865C1.08688 16.1095 1.30438 16.8725 1.87788 17.873C2.45288 18.873 3.00188 19.4445 3.41888 19.767C3.64887 19.9416 3.91563 20.0615 4.19888 20.1175C4.40738 20.1615 4.60188 20.169 4.76288 20.165C5.55188 20.145 6.38789 20.532 7.15089 21.097C7.89839 21.6495 8.45389 22.282 8.64989 22.532L8.68489 22.5775C8.74088 22.65 8.82939 22.765 8.91539 22.862C9.06939 23.0345 9.28689 23.224 9.58139 23.348C10.0674 23.553 10.8394 23.75 12.0024 23.75C13.1509 23.75 13.9184 23.558 14.4054 23.3555C14.6719 23.2425 14.9091 23.0701 15.0989 22.8515C15.2379 22.6955 15.3484 22.5255 15.4339 22.3525C15.9284 21.3525 16.3934 20.8225 16.8999 20.5275C17.4054 20.2335 18.0934 20.091 19.2059 20.1605C19.3984 20.1725 19.6019 20.161 19.8069 20.118C20.0901 20.062 20.3569 19.9421 20.5869 19.7675C21.0044 19.4445 21.5534 18.8735 22.1274 17.8725C22.7019 16.8725 22.9189 16.1095 22.9879 15.5865C23.0226 15.3005 22.9927 15.0104 22.9004 14.7375C22.8376 14.5459 22.7493 14.3636 22.6379 14.1955C22.0224 13.2625 21.7989 12.5905 21.7989 12C21.7989 11.4095 22.0224 10.7375 22.6374 9.8045C22.7439 9.6435 22.8354 9.4615 22.9004 9.2625C22.9927 8.98961 23.0226 8.69948 22.9879 8.4135C22.9184 7.8905 22.7014 7.1275 22.1274 6.127C21.5529 5.127 21.0039 4.5555 20.5869 4.2325C20.3568 4.05809 20.0901 3.9384 19.8069 3.8825C19.6092 3.84124 19.4069 3.82678 19.2054 3.8395C18.0934 3.9095 17.4054 3.7665 16.8999 3.472C16.3934 3.177 15.9284 2.6475 15.4339 1.647C15.345 1.46678 15.2323 1.29929 15.0989 1.149C14.9092 0.929998 14.672 0.757262 14.4054 0.644C13.9179 0.443 13.1504 0.25 12.0024 0.25ZM9.38988 8.2605C9.76838 8.0255 10.2459 7.977 10.7224 8.1615C11.3049 8.387 12.0849 8.7365 13.1054 9.2785C14.0814 9.797 14.8359 10.2575 15.4069 10.639C15.9109 10.976 16.1774 11.4805 16.1774 11.999C16.1774 12.5185 15.9109 13.023 15.4074 13.36C14.8359 13.7415 14.0814 14.202 13.1054 14.72C12.0854 15.2625 11.3054 15.612 10.7224 15.8375C10.2459 16.0215 9.76838 15.974 9.38988 15.738C9.01288 15.5035 8.75388 15.096 8.68188 14.598C8.58488 13.93 8.50239 13.0515 8.50239 12C8.50239 10.9485 8.58489 10.07 8.68139 9.401C8.75339 8.903 9.01288 8.4955 9.38988 8.2605Z" fill="white"/>
</svg>
