<svg width="24" height="24" viewBox="0 0 24 24" fill="none" xmlns="http://www.w3.org/2000/svg">
<path d="M8.75 9.83333V8.16667C8.75 5.86583 9.7825 4 12.0833 4C14.3842 4 15.4167 5.86583 15.4167 8.16667V9.83333M5 16.3333V12.5C5 11.5667 5 11.1 5.18167 10.7442C5.34131 10.4303 5.59628 10.175 5.91 10.015C6.26667 9.83417 6.73333 9.83417 7.66667 9.83417H16.5C17.4333 9.83417 17.9 9.83417 18.2567 10.015C18.5703 10.1748 18.8252 10.4297 18.985 10.7433C19.1667 11.1 19.1667 11.5667 19.1667 12.5V16.3333C19.1667 17.2667 19.1667 17.7333 18.985 18.09C18.8252 18.4036 18.5703 18.6585 18.2567 18.8183C17.9 19 17.4333 19 16.5 19H7.66667C6.73333 19 6.26667 19 5.91 18.8183C5.59641 18.6585 5.34145 18.4036 5.18167 18.09C5 17.7342 5 17.2675 5 16.3333Z" stroke="currentColor"  stroke-width="1.5" stroke-linecap="round" stroke-linejoin="round"/>
</svg>
