<svg width="22" height="20" viewBox="0 0 22 20" fill="none" xmlns="http://www.w3.org/2000/svg">
<path d="M12.7696 0C14.6366 0 16.1123 -0.00154597 17.2647 0.153556C18.4389 0.311624 19.3897 0.644794 20.1393 1.39374C20.8889 2.14291 21.2215 3.09331 21.3794 4.26728C21.5345 5.41991 21.533 6.89628 21.533 8.76343C21.533 10.6305 21.5345 12.1061 21.3794 13.2586C21.2214 14.4327 20.8882 15.3835 20.1393 16.1331C19.3901 16.8828 18.4397 17.2154 17.2657 17.3733C16.1131 17.5283 14.6367 17.5269 12.7696 17.5269C11.7117 17.5269 10.4764 17.9626 9.26908 18.589C8.28617 19.0992 7.49181 19.5132 6.88261 19.75C6.57666 19.8689 6.26747 19.9636 5.97204 19.9916C5.66664 20.0204 5.32083 19.9817 5.00963 19.7725C4.42113 19.3766 4.33107 18.6635 4.31618 18.1098C4.31037 17.8931 4.31771 17.6494 4.33183 17.3801C3.21057 17.237 2.29062 16.9414 1.55316 16.2837L1.39374 16.1331C0.644051 15.3839 0.311485 14.4335 0.153556 13.2596C-0.00146849 12.1069 0 10.6306 0 8.76343C-7.9088e-10 6.89639 -0.00154594 5.42072 0.153556 4.26826C0.311624 3.09413 0.644793 2.14332 1.39374 1.39374C2.14291 0.644051 3.09331 0.311485 4.26728 0.153556C5.41991 -0.00146866 6.89628 -8.13921e-10 8.76343 0H12.7696ZM8.76343 1.5023C6.85379 1.5023 5.497 1.50374 4.46778 1.64216C3.46017 1.77769 2.87944 2.03202 2.45591 2.45591C2.03219 2.88011 1.77875 3.46148 1.64314 4.46876C1.50466 5.49777 1.5023 6.85416 1.5023 8.76343C1.5023 10.6731 1.50374 12.0299 1.64216 13.0591C1.77769 14.0667 2.03202 14.6474 2.45591 15.0709C2.87667 15.4923 3.45303 15.7442 4.4492 15.8798C4.45544 15.8113 4.46136 15.7418 4.46778 15.6715L4.50984 15.2059C4.5471 14.7928 4.91246 14.4881 5.32554 14.5252C5.73859 14.5625 6.04349 14.9278 6.00627 15.3409L5.96422 15.8074C5.86868 16.8542 5.80509 17.5707 5.81848 18.0697C5.82451 18.2939 5.84812 18.4215 5.86543 18.4902C5.96156 18.4761 6.11211 18.4371 6.33783 18.3494C6.85223 18.1495 7.55904 17.7841 8.57662 17.2559C9.85875 16.5906 11.3519 16.0246 12.7696 16.0245C14.6792 16.0245 16.036 16.0231 17.0652 15.8847C18.0728 15.7492 18.6536 15.4948 19.0771 15.0709C19.5008 14.6467 19.7542 14.0654 19.8898 13.0581C20.0283 12.0291 20.0307 10.6727 20.0307 8.76343C20.0307 6.85379 20.0292 5.497 19.8908 4.46778C19.7553 3.46017 19.501 2.87944 19.0771 2.45591C18.6529 2.03219 18.0715 1.77875 17.0642 1.64314C16.0352 1.50466 14.6788 1.5023 12.7696 1.5023H8.76343ZM10.7665 5.00767C11.1813 5.00767 11.5176 5.34397 11.5176 5.75882V8.01227H13.7711C14.1859 8.01227 14.5222 8.34858 14.5222 8.76343C14.5222 9.17827 14.1859 9.51458 13.7711 9.51458H11.5176V11.768C11.5176 12.1829 11.1813 12.5192 10.7665 12.5192C10.3516 12.5192 10.0153 12.1829 10.0153 11.768V9.51458H7.76189C7.34704 9.51458 7.01074 9.17827 7.01074 8.76343C7.01074 8.34858 7.34704 8.01228 7.76189 8.01227H10.0153V5.75882C10.0153 5.34397 10.3516 5.00767 10.7665 5.00767Z" fill="currentColor" />
</svg>
