<svg width="18" height="20" viewBox="0 0 18 20" fill="none" xmlns="http://www.w3.org/2000/svg">
<path d="M0.769183 2.82094C0.769076 2.46004 0.864198 2.10549 1.04494 1.7931C1.22569 1.48071 1.48566 1.22155 1.79861 1.04177C2.11155 0.861992 2.46639 0.767969 2.8273 0.769194C3.18821 0.77042 3.5424 0.86685 3.85412 1.04875L16.158 8.22573C16.4685 8.40591 16.7263 8.66442 16.9055 8.97544C17.0848 9.28645 17.1794 9.63908 17.1797 9.99807C17.18 10.3571 17.0861 10.7099 16.9073 11.0212C16.7286 11.3325 16.4712 11.5915 16.161 11.7722L3.85412 18.9512C3.5424 19.1331 3.18821 19.2295 2.8273 19.2308C2.46639 19.232 2.11155 19.138 1.79861 18.9582C1.48566 18.7784 1.22569 18.5193 1.04494 18.2069C0.864198 17.8945 0.769076 17.5399 0.769183 17.179V2.82094Z" stroke="currentColor"  stroke-width="1.5" stroke-linecap="round" stroke-linejoin="round"/>
</svg>
