<svg width="24" height="24" viewBox="0 0 24 24" fill="none" xmlns="http://www.w3.org/2000/svg">
<path d="M11 3.25C15.2802 3.25 18.75 6.71979 18.75 11C18.75 12.87 18.0872 14.585 16.9844 15.9238L19.5303 18.4697C19.8232 18.7626 19.8232 19.2374 19.5303 19.5303C19.2374 19.8232 18.7626 19.8232 18.4697 19.5303L15.9238 16.9844C14.585 18.0872 12.87 18.75 11 18.75C6.71979 18.75 3.25 15.2802 3.25 11C3.25 6.71979 6.71979 3.25 11 3.25ZM11 4.75C7.54822 4.75 4.75 7.54822 4.75 11C4.75 14.4518 7.54822 17.25 11 17.25C14.4518 17.25 17.25 14.4518 17.25 11C17.25 7.54822 14.4518 4.75 11 4.75Z" fill="currentColor" />
</svg>
