<svg width="19" height="21" viewBox="0 0 19 21" fill="none" xmlns="http://www.w3.org/2000/svg">
<path d="M11.0737 19.6281L16.5652 16.4576C17.1514 16.1191 17.4439 15.9499 17.6571 15.7131C17.8457 15.5036 17.9883 15.2569 18.0754 14.9888C18.1736 14.6865 18.1736 14.3487 18.1736 13.675V7.32475C18.1736 6.65102 18.1736 6.31326 18.0754 6.01098C17.9883 5.7429 17.8457 5.49596 17.6571 5.28648C17.4448 5.05075 17.1529 4.88224 16.5718 4.5467L11.0727 1.37182C10.4865 1.03336 10.194 0.864479 9.88235 0.798243C9.60663 0.739637 9.32158 0.739637 9.04586 0.798243C8.73424 0.864479 8.44074 1.03336 7.85452 1.37182L2.36202 4.54291C1.77648 4.88097 1.48394 5.04987 1.2709 5.28648C1.08228 5.49596 0.939841 5.7429 0.852735 6.01098C0.754288 6.31397 0.754288 6.65261 0.754288 7.32951V13.6705C0.754288 14.3474 0.754288 14.6858 0.852735 14.9888C0.939841 15.2569 1.08228 15.5036 1.2709 15.7131C1.48407 15.9499 1.77682 16.1191 2.36304 16.4576L7.85452 19.6281C8.44072 19.9665 8.73424 20.1355 9.04586 20.2017C9.32158 20.2603 9.60663 20.2603 9.88235 20.2017C10.194 20.1355 10.4875 19.9665 11.0737 19.6281Z" stroke="currentColor"  stroke-width="1.5" stroke-linecap="round" stroke-linejoin="round"/>
<path d="M6.44681 10.4999C6.44681 12.1662 7.79763 13.517 9.46396 13.517C11.1303 13.517 12.4811 12.1662 12.4811 10.4999C12.4811 8.83355 11.1303 7.48273 9.46396 7.48273C7.79763 7.48273 6.44681 8.83355 6.44681 10.4999Z" stroke="currentColor"  stroke-width="1.5" stroke-linecap="round" stroke-linejoin="round"/>
</svg>
