<svg width="20" height="20" viewBox="0 0 20 20" fill="none" xmlns="http://www.w3.org/2000/svg">
<path d="M10 0C12.6522 0 15.196 1.05332 17.0713 2.92869C18.9467 4.80405 20 7.34784 20 10C20 11.3132 19.7413 12.6139 19.2388 13.8271C18.7362 15.0403 17.9998 16.1428 17.0713 17.0713C16.1428 17.9998 15.0403 18.7362 13.8271 19.2388C12.6139 19.7413 11.3132 20 10 20C8.68678 20 7.38613 19.7413 6.17288 19.2388C4.95972 18.7362 3.85721 17.9998 2.92869 17.0713C2.00016 16.1428 1.26376 15.0403 0.761218 13.8271C0.258671 12.6139 0 11.3132 0 10C6.1133e-08 7.34784 1.05332 4.80405 2.92869 2.92869C4.80405 1.05332 7.34784 0 10 0ZM12.488 13.5757C11.0045 14.5993 8.99398 14.5997 7.51102 13.5757L4.58534 16.5014C5.2395 17.0461 5.97269 17.4906 6.76182 17.8175C7.78842 18.2427 8.88881 18.4615 10 18.4615C11.1112 18.4615 12.2116 18.2427 13.2382 17.8175C14.0271 17.4907 14.7596 17.0458 15.4137 16.5014L12.488 13.5757ZM3.4976 4.58534C2.23686 6.09938 1.53846 8.01371 1.53846 10C1.53846 11.1112 1.75726 12.2116 2.18249 13.2382C2.50918 14.0269 2.95334 14.7598 3.4976 15.4137L6.42328 12.488C5.40005 11.0051 5.3998 8.99417 6.42328 7.51102L3.4976 4.58534ZM13.5757 7.51102C14.5996 8.99437 14.5994 11.0049 13.5757 12.488L16.5014 15.4137C17.0458 14.7596 17.4907 14.0271 17.8175 13.2382C18.2427 12.2116 18.4615 11.1112 18.4615 10C18.4615 8.01349 17.7624 6.09946 16.5014 4.58534L13.5757 7.51102ZM11.9942 8.00581C10.9121 6.92376 9.08815 6.92327 8.00481 8.00581C6.92297 9.08924 6.92399 10.9124 8.00581 11.9942C9.08779 13.0762 10.9108 13.0765 11.9942 11.9942C13.0762 10.9121 13.0767 9.08815 11.9942 8.00481V8.00581ZM10 1.53846C8.01371 1.53846 6.09938 2.23686 4.58534 3.4976L7.51102 6.42328C8.99417 5.3998 11.0051 5.40005 12.488 6.42328L15.4137 3.4976C13.8997 2.23718 11.986 1.53846 10 1.53846Z" fill="currentColor" />
</svg>
