<svg width="24" height="24" viewBox="0 0 24 24" fill="none" xmlns="http://www.w3.org/2000/svg">
<path d="M3 17L4.333 13M4.333 13L7 5L10.333 13M4.333 13H10.333M12 17L10.333 13M20.5 17V14.5M20.5 14.5V11.134C20.5 10.4354 20.2225 9.76545 19.7285 9.27148C19.2345 8.77751 18.5646 8.5 17.866 8.5H17.118C16.383 8.5 15.658 8.671 15 9M20.5 14.5L20.25 13.874C20.0289 13.3207 19.6469 12.8464 19.1535 12.5123C18.6601 12.1783 18.0779 11.9998 17.482 12H17C16.337 12 15.7011 12.2634 15.2322 12.7322C14.7634 13.2011 14.5 13.837 14.5 14.5C14.5 15.163 14.7634 15.7989 15.2322 16.2678C15.7011 16.7366 16.337 17 17 17H17.482C18.0779 17.0002 18.6601 16.8217 19.1535 16.4877C19.6469 16.1536 20.0289 15.6793 20.25 15.126L20.5 14.5Z" stroke="currentColor"  stroke-width="1.5" stroke-linecap="round" stroke-linejoin="round"/>
</svg>
