<svg width="24" height="24" viewBox="0 0 24 24" fill="none" xmlns="http://www.w3.org/2000/svg">
<path d="M19 20.25C19.4142 20.25 19.75 20.5858 19.75 21C19.75 21.4142 19.4142 21.75 19 21.75H5C4.58579 21.75 4.25 21.4142 4.25 21C4.25 20.5858 4.58579 20.25 5 20.25H19ZM13.25 9C13.25 8.58629 13.5853 8.25071 13.999 8.25C14.8943 8.24847 15.4884 8.23573 15.8906 8.16699C16.0853 8.13371 16.1836 8.09458 16.2285 8.06934C16.236 8.06513 16.2408 8.06097 16.2441 8.05859L16.248 8.04883C16.2473 8.04247 16.2472 8.03057 16.2422 8.0127C16.2224 7.94207 16.167 7.81821 16.0312 7.62012C15.8925 7.41764 15.7043 7.18569 15.4629 6.90723L14.5723 5.91504C13.8312 5.10129 13.3187 4.54664 12.8838 4.18652C12.4676 3.84195 12.2141 3.7544 12 3.75C11.7859 3.7544 11.5324 3.84195 11.1162 4.18652C10.7899 4.45669 10.4198 4.83615 9.94238 5.35254L9.42773 5.91504C8.72148 6.69141 8.24756 7.21486 7.96973 7.62012C7.83387 7.81828 7.77863 7.94189 7.75879 8.0127C7.75348 8.03165 7.7516 8.04364 7.75098 8.0498L7.75391 8.05859C7.75727 8.06098 7.76201 8.0651 7.76953 8.06934C7.81468 8.09471 7.91425 8.1336 8.10938 8.16699C8.51167 8.23578 9.10576 8.24847 10 8.25C10.4137 8.25071 10.749 8.58629 10.749 9V15.5C10.749 15.8863 10.7529 16.043 10.7627 16.126L10.7744 16.1904L10.8066 16.2871C10.8442 16.3776 10.9 16.4596 10.9697 16.5293C11.0394 16.599 11.1215 16.6548 11.2119 16.6924L11.3057 16.7236L11.3076 16.7246C11.3775 16.7436 11.486 16.75 12 16.75C12.5103 16.75 12.6213 16.7436 12.6934 16.7246C12.8204 16.6905 12.9363 16.6233 13.0293 16.5303C13.1223 16.4372 13.1895 16.3214 13.2236 16.1943L13.2246 16.1924C13.2436 16.1225 13.25 16.014 13.25 15.5V9ZM14.75 15.5C14.75 15.9143 14.7558 16.2708 14.6719 16.582L14.6729 16.583C14.5706 16.9642 14.3689 17.3117 14.0898 17.5908C13.8108 17.8699 13.4632 18.0715 13.082 18.1738H13.0811C12.7711 18.2565 12.4168 18.25 12 18.25C11.5852 18.25 11.2284 18.256 10.917 18.1719V18.1729C10.5358 18.0706 10.1883 17.8689 9.90918 17.5898C9.6301 17.3108 9.42846 16.9632 9.32617 16.582V16.5811C9.24227 16.2705 9.24902 15.9133 9.24902 15.5V9.74219C8.70969 9.73302 8.23982 9.71107 7.85645 9.64551C7.31015 9.55202 6.69818 9.33459 6.40137 8.70801L6.39648 8.69922C6.38045 8.66413 6.36558 8.62809 6.35156 8.5918C6.08109 7.90221 6.39466 7.26416 6.73242 6.77148C7.08307 6.26007 7.64482 5.64568 8.31836 4.90527L8.83301 4.34277C9.32615 3.80897 9.75854 3.36301 10.1592 3.03125C10.707 2.57771 11.2881 2.25765 11.9922 2.25H12.0078C12.7119 2.25765 13.293 2.57771 13.8408 3.03125C14.375 3.47362 14.9659 4.11923 15.6816 4.90527L16.165 5.4375C16.6238 5.94689 17.0047 6.38895 17.2676 6.77246C17.6054 7.26531 17.9188 7.90241 17.6484 8.5918C17.6451 8.60022 17.6413 8.60889 17.6377 8.61719L17.6074 8.68652C17.6043 8.69358 17.6009 8.70105 17.5977 8.70801C17.301 9.33481 16.69 9.55206 16.1436 9.64551C15.7602 9.71103 15.2897 9.7331 14.75 9.74219V15.5Z" fill="currentColor" />
</svg>
