<svg width="72" height="72" viewBox="0 0 72 72" fill="none" xmlns="http://www.w3.org/2000/svg">
<g clip-path="url(#clip0_3154_3883)">
<path d="M21.4201 50.92C23.1269 50.92 24.7645 50.6243 26.2865 50.0851V22.6083C24.7645 22.0693 23.1268 21.7752 21.4201 21.7752C13.372 21.7752 6.84766 28.2995 6.84766 36.3477C6.84792 44.3955 13.3721 50.92 21.4201 50.92Z" fill="white"/>
<path d="M65.1483 36.349C65.1483 21.1947 57.4363 7.84318 45.7244 0L45.7227 20.241L45.7244 52.145V72.6982C57.4363 64.8548 65.1483 51.5032 65.1483 36.349Z" fill="white"/>
<path d="M45.702 20.241C41.3351 13.6686 34.3727 8.97227 26.2773 7.61133V22.6087V50.0855V65.0865C34.3729 63.7257 41.3372 58.7175 45.7041 52.1446L45.702 20.241Z" fill="white"/>
</g>
<defs>
<clipPath id="clip0_3154_3883">
<rect width="72" height="72" fill="white"/>
</clipPath>
</defs>
</svg>
