<svg width="32" height="32" viewBox="0 0 136 170" fill="none" xmlns="http://www.w3.org/2000/svg">
<path d="M33.9434 118.608C37.9189 118.608 41.7332 117.919 45.2784 116.664V52.6622C41.7334 51.4065 37.9187 50.7216 33.9434 50.7216C15.197 50.7216 0 65.9186 0 84.665C0.000621333 103.411 15.1974 118.608 33.9434 118.608Z" fill="#1F1F1F"/>
<path d="M135.771 84.667C135.771 49.3685 117.809 18.2689 90.528 0L90.5239 47.147L90.528 121.46V169.334C117.809 151.065 135.771 119.966 135.771 84.667Z" fill="#1F1F1F"/>
<path d="M90.5239 47.147C80.3521 31.8382 64.1349 20.899 45.2784 17.729V52.6622V116.664V151.605C64.1353 148.435 80.3562 136.77 90.528 121.46L90.5239 47.147Z" fill="#1F1F1F"/>
</svg>
