<svg width="121" height="32" viewBox="0 0 121 32" fill="none" xmlns="http://www.w3.org/2000/svg">
<g clip-path="url(#clip0_1_514)">
<g clip-path="url(#clip1_1_514)">
<path d="M57.217 10.6089C58.9911 10.5928 60.4509 11.1736 61.5959 12.351C62.7409 13.5283 63.3135 15.0523 63.3135 16.923C63.3135 18.7938 62.7329 20.3261 61.5718 21.5194C60.4268 22.7129 58.9833 23.2933 57.2416 23.2611C55.387 23.245 53.9514 22.5114 52.9353 21.0602H52.8386V27.7608H50.5645V10.9478H52.8386V12.6895H52.9594C53.4111 12.0606 53.9996 11.5605 54.7252 11.1896C55.467 10.8187 56.2978 10.6251 57.217 10.6089ZM71.4579 10.6093C73.3448 10.6093 74.8766 11.2141 76.0539 12.4236C77.2474 13.6332 77.8442 15.1329 77.8442 16.923C77.8442 18.7133 77.2474 20.2215 76.0539 21.4472C74.8606 22.6567 73.3285 23.2615 71.4579 23.2615C69.5387 23.2615 67.9741 22.6567 66.7646 21.4472C65.5711 20.2215 64.9743 18.7133 64.9743 16.923C64.9743 15.1329 65.5711 13.6332 66.7646 12.4236C67.9741 11.2141 69.5386 10.6093 71.4579 10.6093ZM114.415 10.6093C116.301 10.6093 117.833 11.2141 119.011 12.4236C120.204 13.6332 120.801 15.1329 120.801 16.923C120.801 18.7133 120.204 20.2215 119.011 21.4472C117.817 22.6567 116.285 23.2615 114.415 23.2615C112.495 23.2615 110.931 22.6567 109.721 21.4472C108.528 20.2215 107.931 18.7133 107.931 16.923C107.931 15.1329 108.528 13.6332 109.721 12.4236C110.931 11.2141 112.495 10.6093 114.415 10.6093ZM47.0072 22.9227H44.6609V9.01222H35.4679V22.9227H33.1213V6.71436H47.0072V22.9227ZM87.3392 19.5599L91.0166 10.9478H94.5244V22.9227H92.226V13.5846L88.1861 22.9227H86.5169L82.4769 13.5846V22.9227H80.1786V10.9478H83.6864L87.3392 19.5599ZM107.259 13.1734H103.026V22.9227H100.727V13.1734H96.4938V10.9478H107.259V13.1734ZM71.4579 12.8104C70.2322 12.8104 69.2321 13.2057 68.458 13.9958C67.684 14.7861 67.2966 15.7619 67.2966 16.923C67.2966 18.0842 67.684 19.0683 68.458 19.8746C69.2321 20.6647 70.2322 21.0602 71.4579 21.0602C72.6512 21.06 73.627 20.6568 74.385 19.8505C75.1591 19.0442 75.546 18.068 75.546 16.923C75.546 15.7619 75.1591 14.7861 74.385 13.9958C73.627 13.2056 72.6512 12.8104 71.4579 12.8104ZM114.415 12.8104C113.189 12.8104 112.189 13.2057 111.415 13.9958C110.641 14.7861 110.253 15.7619 110.253 16.923C110.253 18.0842 110.641 19.0683 111.415 19.8746C112.189 20.6647 113.189 21.0602 114.415 21.0602C115.608 21.06 116.584 20.6568 117.342 19.8505C118.116 19.0442 118.503 18.068 118.503 16.923C118.503 15.7619 118.116 14.7861 117.342 13.9958C116.584 13.2056 115.608 12.8104 114.415 12.8104ZM56.9026 12.8104C55.7091 12.8104 54.7335 13.2056 53.9755 13.9958C53.2337 14.7861 52.8627 15.7618 52.8627 16.923C52.8627 18.0842 53.2337 19.0598 53.9755 19.8501C54.7335 20.6403 55.7091 21.0356 56.9026 21.0356C58.1283 21.0356 59.1203 20.6405 59.8783 19.8501C60.6362 19.0598 61.0151 18.0842 61.0151 16.923C61.0151 15.7618 60.6362 14.7861 59.8783 13.9958C59.1203 13.2056 58.1283 12.8104 56.9026 12.8104Z" fill="black"/>
<path d="M6.41087 22.4013C7.16171 22.4013 7.88213 22.2711 8.5517 22.034V9.94611C7.88216 9.70896 7.16167 9.57959 6.41087 9.57959C2.87024 9.57959 0 12.4498 0 15.9905C0.000117351 19.5309 2.87031 22.4013 6.41087 22.4013Z" fill="#D9D9D9"/>
<path d="M6.41087 22.4013C7.16171 22.4013 7.88213 22.2711 8.5517 22.034V9.94611C7.88216 9.70896 7.16167 9.57959 6.41087 9.57959C2.87024 9.57959 0 12.4498 0 15.9905C0.000117351 19.5309 2.87031 22.4013 6.41087 22.4013Z" fill="url(#paint0_linear_1_514)"/>
<path d="M25.6422 15.991C25.6422 9.32418 22.2495 3.45044 17.0971 0L17.0963 8.90462L17.0971 22.9401V31.9821C22.2495 28.5315 25.6422 22.6578 25.6422 15.991Z" fill="url(#paint1_linear_1_514)"/>
<path d="M17.0971 8.90478C15.176 6.01342 12.113 3.94735 8.55164 3.34863V9.94644V22.0343V28.6337C12.1131 28.035 15.1769 25.8317 17.098 22.9401L17.0971 8.90478Z" fill="url(#paint2_linear_1_514)"/>
</g>
</g>
<defs>
<linearGradient id="paint0_linear_1_514" x1="0" y1="16.0848" x2="8.34365" y2="16.0848" gradientUnits="userSpaceOnUse">
<stop offset="1" stop-color="#FFD800"/>
</linearGradient>
<linearGradient id="paint1_linear_1_514" x1="25.6422" y1="16.1619" x2="17.0879" y2="16.1619" gradientUnits="userSpaceOnUse">
<stop stop-color="#4B73FF"/>
<stop offset="1" stop-color="#4B73FF" stop-opacity="0"/>
</linearGradient>
<linearGradient id="paint2_linear_1_514" x1="8.54847" y1="16.1228" x2="17.098" y2="16.1228" gradientUnits="userSpaceOnUse">
<stop stop-color="#D96FD6" stop-opacity="0"/>
<stop offset="1" stop-color="#D96FD6"/>
</linearGradient>
<clipPath id="clip0_1_514">
<rect width="121" height="32" fill="white"/>
</clipPath>
<clipPath id="clip1_1_514">
<rect width="120.967" height="32" fill="white"/>
</clipPath>
</defs>
</svg>
