<svg width="120" height="32" viewBox="0 0 640 170" fill="none" xmlns="http://www.w3.org/2000/svg">
<path d="M302.947 56.171C312.34 56.0856 320.068 59.161 326.131 65.3946C332.194 71.628 335.225 79.6969 335.225 89.6019C335.225 99.5071 332.152 107.62 326.004 113.939C319.941 120.258 312.298 123.331 303.076 123.16C293.257 123.075 285.656 119.191 280.277 111.506H279.764V146.985H267.723V57.9655H279.764V67.187H280.404C282.795 63.8571 285.911 61.2094 289.753 59.2455C293.681 57.2816 298.08 56.2564 302.947 56.171ZM378.347 56.173C388.337 56.1732 396.448 59.3752 402.682 65.7794C409.001 72.1836 412.16 80.1238 412.161 89.6019C412.161 99.0804 409.001 107.066 402.682 113.556C396.363 119.96 388.251 123.162 378.347 123.163C368.186 123.163 359.902 119.96 353.497 113.556C347.178 107.066 344.019 99.0804 344.019 89.6019C344.019 80.124 347.179 72.1835 353.497 65.7794C359.902 59.375 368.185 56.173 378.347 56.173ZM605.788 56.173C615.779 56.1732 623.89 59.3752 630.123 65.7794C636.442 72.1836 639.602 80.1238 639.602 89.6019C639.602 99.0804 636.442 107.066 630.123 113.556C623.805 119.96 615.693 123.162 605.788 123.163C595.627 123.163 587.343 119.96 580.939 113.556C574.62 107.066 571.46 99.0804 571.46 89.6019C571.46 80.124 574.62 72.1835 580.939 65.7794C587.343 59.375 595.627 56.173 605.788 56.173ZM248.889 121.368H236.466V47.717H187.792V121.368H175.368V35.5506H248.889V121.368ZM462.434 103.563L481.904 57.9655H500.476V121.368H488.308V71.9264L466.918 121.368H458.079L436.689 71.9264V121.368H424.52V57.9655H443.093L462.434 103.563ZM567.902 69.7491H545.487V121.368H533.319V69.7491H510.904V57.9655H567.902V69.7491ZM378.347 67.827C371.857 67.827 366.563 69.9199 362.464 74.1037C358.365 78.2877 356.315 83.4541 356.315 89.6019C356.315 95.7501 358.365 100.96 362.464 105.23C366.563 109.414 371.857 111.506 378.347 111.506C384.665 111.506 389.832 109.371 393.845 105.102C397.944 100.833 399.992 95.6647 399.992 89.6019C399.992 83.4541 397.944 78.2877 393.845 74.1037C389.832 69.9197 384.665 67.8272 378.347 67.827ZM605.788 67.827C599.299 67.827 594.004 69.9199 589.905 74.1037C585.807 78.2877 583.756 83.4541 583.756 89.6019C583.756 95.7501 585.807 100.96 589.905 105.23C594.004 109.414 599.299 111.506 605.788 111.506C612.107 111.506 617.273 109.371 621.287 105.102C625.385 100.833 627.434 95.6647 627.434 89.6019C627.433 83.4541 625.385 78.2877 621.287 74.1037C617.273 69.9197 612.107 67.8272 605.788 67.827ZM301.282 67.827C294.963 67.8271 289.797 69.9197 285.784 74.1037C281.856 78.2878 279.892 83.454 279.892 89.6019C279.892 95.7499 281.856 100.916 285.784 105.1C289.797 109.284 294.963 111.377 301.282 111.377C307.772 111.377 313.024 109.284 317.037 105.1C321.05 100.916 323.057 95.7498 323.057 89.6019C323.057 83.454 321.05 78.2878 317.037 74.1037C313.024 69.9195 307.772 67.827 301.282 67.827Z" fill="#1F1F1F"/>
<path d="M33.9434 118.608C37.9189 118.608 41.7332 117.919 45.2784 116.664V52.6622C41.7334 51.4065 37.9187 50.7216 33.9434 50.7216C15.197 50.7216 0 65.9186 0 84.665C0.000621333 103.411 15.1974 118.608 33.9434 118.608Z" fill="#1F1F1F"/>
<path d="M135.771 84.667C135.771 49.3685 117.809 18.2689 90.528 0L90.5239 47.147L90.528 121.46V169.334C117.809 151.065 135.771 119.966 135.771 84.667Z" fill="#1F1F1F"/>
<path d="M90.5239 47.147C80.3521 31.8382 64.1349 20.899 45.2784 17.729V52.6622V116.664V151.605C64.1353 148.435 80.3562 136.77 90.528 121.46L90.5239 47.147Z" fill="#1F1F1F"/>
</svg>
