<svg width="42" height="42" viewBox="0 0 42 42" fill="none" xmlns="http://www.w3.org/2000/svg">
<g clip-path="url(#clip0_1_103)">
<path d="M8.50062 29.7038C9.49621 29.7038 10.4515 29.5313 11.3393 29.2168V13.1886C10.4515 12.8742 9.49616 12.7026 8.50062 12.7026C3.80585 12.7026 0 16.5085 0 21.2033C0.000155603 25.8978 3.80595 29.7038 8.50062 29.7038Z" fill="#D9D9D9"/>
<path d="M8.50062 29.7038C9.49621 29.7038 10.4515 29.5313 11.3393 29.2168V13.1886C10.4515 12.8742 9.49616 12.7026 8.50062 12.7026C3.80585 12.7026 0 16.5085 0 21.2033C0.000155603 25.8978 3.80595 29.7038 8.50062 29.7038Z" fill="url(#paint0_linear_1_103)"/>
<path d="M33.9983 21.2036C33.9983 12.3636 29.4996 4.57519 22.6677 0L22.6667 11.8073L22.6677 30.4179V42.4073C29.4996 37.8319 33.9983 30.0435 33.9983 21.2036Z" fill="url(#paint1_linear_1_103)"/>
<path d="M22.6688 11.8072C20.1214 7.97338 16.0601 5.23382 11.3378 4.43994V13.1884V29.2165V37.9671C16.0602 37.1733 20.1227 34.2519 22.6701 30.4177L22.6688 11.8072Z" fill="url(#paint2_linear_1_103)"/>
</g>
<defs>
<linearGradient id="paint0_linear_1_103" x1="0" y1="21.3284" x2="11.0634" y2="21.3284" gradientUnits="userSpaceOnUse">
<stop offset="1" stop-color="#FFD800"/>
</linearGradient>
<linearGradient id="paint1_linear_1_103" x1="33.9983" y1="21.4302" x2="22.6555" y2="21.4302" gradientUnits="userSpaceOnUse">
<stop stop-color="#4B73FF"/>
<stop offset="1" stop-color="#4B73FF" stop-opacity="0"/>
</linearGradient>
<linearGradient id="paint2_linear_1_103" x1="11.3336" y1="21.3781" x2="22.6701" y2="21.3781" gradientUnits="userSpaceOnUse">
<stop stop-color="#D96FD6" stop-opacity="0"/>
<stop offset="1" stop-color="#D96FD6"/>
</linearGradient>
<clipPath id="clip0_1_103">
<rect width="42" height="42" fill="white"/>
</clipPath>
</defs>
</svg>
